<svg width="244" height="152" viewBox="0 0 244 152" fill="none" xmlns="http://www.w3.org/2000/svg">
<path opacity="0.15" d="M0 152V37.9998C27.8058 39.3884 55.6117 40.7771 82.4771 37.0146C109.342 33.2521 135.268 24.3386 162.031 23.6442C188.795 22.9499 216.397 30.4749 244 37.9998V152H0Z" fill="#A8BADD"/>
<path opacity="0.3" d="M0 152V76.0001C35.7867 74.8554 71.5733 73.7107 94.1687 76.8445C116.764 79.9784 126.168 87.3907 148.942 87.9631C171.715 88.5354 207.857 82.2677 244 76.0001V152H0Z" fill="#A8BADD"/>
<path opacity="0.45" d="M0 152V114C25.2811 108.183 50.5622 102.366 78.4104 105.837C106.259 109.309 136.674 122.069 164.7 124.978C192.726 127.887 218.363 120.943 244 114V152H0Z" fill="#A8BADD"/>
</svg>
