<svg width="56" height="16" viewBox="0 0 56 16" fill="none" xmlns="http://www.w3.org/2000/svg">
<g clip-path="url(#clip0_373_3816)">
<path d="M26.656 9.47865C23.968 10.0853 22.624 9.0995 23.856 8.03789C24.416 7.58292 26.208 6.67296 26.992 7.65875C26.992 7.65875 27.104 7.73458 27.104 7.88623C27.104 7.96206 27.216 7.96206 27.216 8.03789C27.216 8.03789 27.216 8.03789 27.216 8.11372C27.44 8.41704 27.44 8.94785 26.656 9.47865ZM30.688 3.79145C30.464 2.57818 29.904 2.72984 29.12 3.56396C28.448 4.24642 28.224 4.7014 28.336 5.08055C28.448 5.68718 28.56 6.06633 28.56 6.06633C26.432 3.86728 21.84 5.68718 20.272 8.94785C18.928 11.9052 23.632 11.7535 23.632 11.7535C23.632 11.7535 20.832 13.6493 14.784 13.5734C11.2 13.5734 9.85596 12.5877 9.40796 12.1327C8.73596 11.2986 8.28796 11.8294 8.39996 12.5118C8.39996 12.7393 8.51196 12.9668 8.39996 13.3459C8.28796 14.2559 9.18397 14.9384 10.192 15.3175C13.216 16.3033 18.256 16.3033 23.296 14.4076C26.88 13.0426 29.68 10.8436 30.464 7.58292C30.8 6.74879 31.024 5.23221 30.688 3.79145Z" fill="#F096A5"/>
<path d="M49.0559 9.63033C40.7679 12.5877 36.5119 10.1611 36.5119 10.1611C39.6479 6.52132 47.7119 3.71564 52.3039 4.47393C54.4319 4.85308 56.2239 7.05213 49.0559 9.63033ZM55.9999 4.85308C55.7759 2.80568 53.3119 1.97156 51.1839 1.89573C40.6559 1.8199 34.8319 8.72038 34.8319 8.72038C32.5919 7.05213 33.4879 3.56398 33.9359 2.65402C34.3839 1.8199 33.4879 1.44076 32.9279 2.42654C30.0159 7.58294 33.0399 11.2986 33.0399 11.2986C33.0399 11.2986 31.9199 12.9668 31.8079 14.7109C31.8079 15.545 32.4799 15.9242 33.4879 15.9242C34.9439 15.9242 35.2799 14.7867 34.7199 14.1801C34.2719 13.6493 34.9439 12.5877 34.9439 12.5877C34.9439 12.5877 39.6479 15.1659 48.3839 12.2844C53.9839 10.3886 56.2239 6.90047 55.9999 4.85308Z" fill="#F096A5"/>
<path d="M24.1921 2.50237C24.7521 2.72986 25.2001 2.88152 25.4241 2.88152C25.9841 2.95735 26.4321 2.80569 26.7681 2.5782C27.4401 2.12322 27.3281 1.21327 26.2081 1.13744C25.8721 1.13744 25.5361 1.13744 25.3121 1.36493C26.2081 1.06161 26.9921 1.66825 26.5441 2.19905C26.3201 2.42654 25.9841 2.5782 25.5361 2.50237C24.7521 2.42654 24.3041 1.89573 24.5281 1.44076C24.7521 0.909952 25.6481 0.682464 26.3201 0.758294C27.7761 0.909953 27.7761 1.97156 27.6641 2.19905C27.5521 2.5782 27.2161 2.88152 26.7681 3.03317C24.9761 3.56398 24.1921 2.50237 24.1921 2.50237ZM25.2001 3.71564C26.7681 3.8673 28.3361 3.109 28.4481 2.12322C28.6721 1.21327 27.7761 0.758294 27.4401 0.606635C27.2161 0.530806 26.8801 0.454976 26.5441 0.379147C25.4241 0.303317 24.3041 0.758293 24.0801 1.44076C24.0801 1.66825 24.0801 1.81991 24.1921 2.04739C23.4081 1.13744 24.6401 0.151659 25.6481 0C24.3041 0.0758294 23.0721 0.682465 22.8481 1.59242V1.66825C22.8481 1.66825 22.8481 1.66825 22.8481 1.74408C22.8481 1.89573 22.8481 2.12322 22.9601 2.35071C23.1841 3.109 24.0801 3.63981 25.2001 3.71564Z" fill="#F096A5"/>
<path d="M41.1039 1.74428C41.1039 2.65424 39.8719 3.41253 38.5279 3.3367C37.0719 3.3367 35.9519 2.57841 36.0639 1.66845C36.0639 0.758502 37.1839 0.000207528 38.6399 0.0760369C40.0959 0.0760369 41.2159 0.83433 41.1039 1.74428Z" fill="#F096A5"/>
<path d="M17.3599 2.27488C19.1519 1.81991 20.0479 2.04739 19.3759 2.65403C18.8159 3.109 16.0159 3.48815 14.7839 3.18483C15.6799 2.72986 16.6879 2.42654 17.3599 2.27488ZM12.5439 4.17062C12.9919 5.08057 15.4559 5.08057 17.3599 5.1564C19.5999 5.1564 21.5039 4.54976 21.5039 3.33649C21.5039 2.12322 20.3839 0 17.9199 0C15.5679 0 11.7599 1.51659 9.18395 3.41232C8.06395 4.17062 7.27995 5.00474 6.83195 5.76303C6.60795 6.06635 6.38395 6.52133 6.38395 7.05213C6.38395 7.81043 7.16795 8.49289 9.96795 8.18957C16.7999 7.43128 16.9119 7.88626 16.9119 7.88626C16.9119 7.88626 10.3039 10.9953 4.70395 9.93365C-5.19566e-05 9.09953 1.79195 4.70142 5.48795 2.19905C6.71995 1.21327 5.93595 0.834124 4.47995 1.66825C2.91195 2.65403 0.559948 4.32227 0.111948 7.12796C-0.560052 11.2227 3.24795 12.1327 5.71195 12.3602C9.96795 12.7393 13.9999 11.2227 15.4559 10.6919C16.3519 10.3886 19.7119 9.25118 19.4879 6.82464C19.3759 5.45972 16.6879 5.38389 12.5439 5.91469C9.63195 6.21801 9.29595 6.06635 9.29595 6.06635C9.74395 5.45972 10.9759 4.77725 12.5439 4.17062Z" fill="#F096A5"/>
</g>
<defs>
<clipPath id="clip0_373_3816">
<rect width="56" height="16" fill="white"/>
</clipPath>
</defs>
</svg>
