<svg width="56" height="16" viewBox="0 0 56 16" fill="none" xmlns="http://www.w3.org/2000/svg">
<path d="M51.3478 13.2717H44.2832C42.0432 13.2717 40.2627 11.8382 40.2627 10.0347V4.34686C40.2627 2.54339 42.0432 1.10986 44.2832 1.10986H51.3478C53.5878 1.10986 55.3683 2.54339 55.3683 4.34686V10.0347C55.3683 11.7919 53.5304 13.2717 51.3478 13.2717Z" fill="#C4268F"/>
<path d="M51.2331 6.61253C52.6605 6.61253 53.8177 5.68087 53.8177 4.53161C53.8177 3.38235 52.6605 2.45068 51.2331 2.45068C49.8056 2.45068 48.6484 3.38235 48.6484 4.53161C48.6484 5.68087 49.8056 6.61253 51.2331 6.61253Z" fill="#E3EEC6"/>
<path d="M51.2331 11.8381C52.6605 11.8381 53.8177 10.9065 53.8177 9.75719C53.8177 8.60793 52.6605 7.67627 51.2331 7.67627C49.8056 7.67627 48.6484 8.60793 48.6484 9.75719C48.6484 10.9065 49.8056 11.8381 51.2331 11.8381Z" fill="#C7E9F4"/>
<path d="M44.5128 6.61253C45.9403 6.61253 47.0975 5.68087 47.0975 4.53161C47.0975 3.38235 45.9403 2.45068 44.5128 2.45068C43.0854 2.45068 41.9282 3.38235 41.9282 4.53161C41.9282 5.68087 43.0854 6.61253 44.5128 6.61253Z" fill="#FDD7CA"/>
<path d="M44.5128 11.8381C45.9403 11.8381 47.0975 10.9065 47.0975 9.75719C47.0975 8.60793 45.9403 7.67627 44.5128 7.67627C43.0854 7.67627 41.9282 8.60793 41.9282 9.75719C41.9282 10.9065 43.0854 11.8381 44.5128 11.8381Z" fill="#FFF9B8"/>
<path d="M35.4954 6.89038C36.3836 6.89038 37.1036 6.31068 37.1036 5.59558C37.1036 4.88048 36.3836 4.30078 35.4954 4.30078C34.6072 4.30078 33.8872 4.88048 33.8872 5.59558C33.8872 6.31068 34.6072 6.89038 35.4954 6.89038Z" fill="#C4258F"/>
<path d="M35.4954 3.69946C36.3836 3.69946 37.1036 3.11976 37.1036 2.40466C37.1036 1.68956 36.3836 1.10986 35.4954 1.10986C34.6072 1.10986 33.8872 1.68956 33.8872 2.40466C33.8872 3.11976 34.6072 3.69946 35.4954 3.69946Z" fill="#C4258F"/>
<path d="M31.4749 3.69946C32.3631 3.69946 33.0831 3.11976 33.0831 2.40466C33.0831 1.68956 32.3631 1.10986 31.4749 1.10986C30.5867 1.10986 29.8667 1.68956 29.8667 2.40466C29.8667 3.11976 30.5867 3.69946 31.4749 3.69946Z" fill="#C4258F"/>
<path d="M2.24004 6.89038C3.12823 6.89038 3.84825 6.31068 3.84825 5.59558C3.84825 4.88048 3.12823 4.30078 2.24004 4.30078C1.35185 4.30078 0.631836 4.88048 0.631836 5.59558C0.631836 6.31068 1.35185 6.89038 2.24004 6.89038Z" fill="#C4258F"/>
<path d="M7.00713 13.2717H6.9497C6.08816 13.2717 5.39893 12.7168 5.39893 12.0232V2.35842C5.39893 1.66478 6.08816 1.10986 6.9497 1.10986H7.00713C7.86867 1.10986 8.5579 1.66478 8.5579 2.35842V12.0232C8.5579 12.7168 7.86867 13.2717 7.00713 13.2717Z" fill="#C4258F"/>
<path d="M2.29748 15.1676H2.1826C1.32107 15.1676 0.631836 14.6127 0.631836 13.919V9.38723C0.631836 8.69358 1.32107 8.13867 2.1826 8.13867H2.29748C3.15902 8.13867 3.84825 8.69358 3.84825 9.38723V13.919C3.84825 14.6127 3.10158 15.1676 2.29748 15.1676Z" fill="#C4258F"/>
<path d="M20.5045 8.46263C20.5045 6.15049 18.207 4.30078 15.3352 4.30078C12.4635 4.30078 10.166 6.15049 10.166 8.46263C10.166 10.7748 12.4635 12.6245 15.3352 12.6245C16.0245 12.6245 16.7137 12.4858 17.3455 12.3008V13.9193C17.3455 14.6129 18.0347 15.2141 18.9537 15.2141C19.8727 15.2141 20.5619 14.6592 20.5619 13.9193V8.78633C20.5619 8.74009 20.5619 8.69385 20.5619 8.6476C20.447 8.60136 20.5045 8.50887 20.5045 8.46263ZM15.3352 10.0811C14.244 10.0811 13.325 9.38749 13.325 8.46263C13.325 7.58402 14.1865 6.84413 15.3352 6.84413C16.484 6.84413 17.3455 7.53778 17.3455 8.46263C17.2881 9.34124 16.4265 10.0811 15.3352 10.0811Z" fill="#C4258F"/>
<path d="M35.4955 10.682H27.512H27.3396C26.3058 10.682 25.4443 9.98833 25.3868 9.20221V8.64729V2.35827C25.3868 1.66463 24.6976 1.06348 23.7786 1.06348C22.9171 1.06348 22.1704 1.66463 22.1704 2.35827V9.20221C22.1704 9.24845 22.1704 9.29469 22.1704 9.34093C22.1704 9.38718 22.1704 9.61839 22.1704 9.66463C22.4576 11.6531 24.755 13.2716 27.0525 13.2716H26.9376H27.1099C27.1673 13.2716 27.4545 13.2716 27.512 13.2716H35.4955C36.3571 13.2716 37.1037 12.6704 37.1037 11.9768C37.0463 11.2831 36.3571 10.682 35.4955 10.682Z" fill="#C4258F"/>
</svg>
