<svg width="12" height="12" viewBox="0 0 12 12" fill="none" xmlns="http://www.w3.org/2000/svg">
<path d="M6.6499 8.6499L4.3499 6.3499C4.2999 6.2999 4.26449 6.24574 4.24365 6.1874C4.22282 6.12907 4.2124 6.06657 4.2124 5.9999C4.2124 5.93324 4.22282 5.87074 4.24365 5.8124C4.26449 5.75407 4.2999 5.6999 4.3499 5.6499L6.6499 3.3499C6.74157 3.25824 6.85824 3.2124 6.9999 3.2124C7.14157 3.2124 7.25824 3.25824 7.3499 3.3499C7.44157 3.44157 7.4874 3.55824 7.4874 3.6999C7.4874 3.84157 7.44157 3.95824 7.3499 4.0499L5.3999 5.9999L7.3499 7.9499C7.44157 8.04157 7.4874 8.15824 7.4874 8.2999C7.4874 8.44157 7.44157 8.55824 7.3499 8.6499C7.25824 8.74157 7.14157 8.7874 6.9999 8.7874C6.85824 8.7874 6.74157 8.74157 6.6499 8.6499Z" fill="#3156A4"/>
</svg>
