<svg width="16" height="19" viewBox="0 0 16 19" fill="none" xmlns="http://www.w3.org/2000/svg">
<path d="M8.83333 18.1665C8.59722 18.1665 8.39931 18.0866 8.23958 17.9269C8.07986 17.7672 8 17.5693 8 17.3332C8 17.0971 8.07986 16.8991 8.23958 16.7394C8.39931 16.5797 8.59722 16.4998 8.83333 16.4998H13.8333V15.6665H12.1667C11.7083 15.6665 11.316 15.5033 10.9896 15.1769C10.6632 14.8505 10.5 14.4582 10.5 13.9998V10.6665C10.5 10.2082 10.6632 9.81581 10.9896 9.48942C11.316 9.16303 11.7083 8.99984 12.1667 8.99984H13.8333V8.1665C13.8333 6.55539 13.2639 5.18039 12.125 4.0415C10.9861 2.90262 9.61111 2.33317 8 2.33317C6.38889 2.33317 5.01389 2.90262 3.875 4.0415C2.73611 5.18039 2.16667 6.55539 2.16667 8.1665V8.99984H3.83333C4.29167 8.99984 4.68403 9.16303 5.01042 9.48942C5.33681 9.81581 5.5 10.2082 5.5 10.6665V13.9998C5.5 14.4582 5.33681 14.8505 5.01042 15.1769C4.68403 15.5033 4.29167 15.6665 3.83333 15.6665H2.16667C1.70833 15.6665 1.31597 15.5033 0.989583 15.1769C0.663194 14.8505 0.5 14.4582 0.5 13.9998V8.1665C0.5 7.13873 0.697917 6.16998 1.09375 5.26025C1.48958 4.35053 2.02778 3.55539 2.70833 2.87484C3.38889 2.19428 4.18403 1.65609 5.09375 1.26025C6.00347 0.864421 6.97222 0.666504 8 0.666504C9.02778 0.666504 9.99653 0.864421 10.9062 1.26025C11.816 1.65609 12.6111 2.19428 13.2917 2.87484C13.9722 3.55539 14.5104 4.35053 14.9062 5.26025C15.3021 6.16998 15.5 7.13873 15.5 8.1665V16.4998C15.5 16.9582 15.3368 17.3505 15.0104 17.6769C14.684 18.0033 14.2917 18.1665 13.8333 18.1665H8.83333ZM2.16667 13.9998H3.83333V10.6665H2.16667V13.9998ZM12.1667 13.9998H13.8333V10.6665H12.1667V13.9998Z" fill="white"/>
</svg>
