<svg width="18" height="12" viewBox="0 0 18 12" fill="none" xmlns="http://www.w3.org/2000/svg">
<path d="M0.75 12C0.5375 12 0.359375 11.9277 0.215625 11.7831C0.071875 11.6385 0 11.4594 0 11.2456C0 11.0319 0.071875 10.8542 0.215625 10.7125C0.359375 10.5708 0.5375 10.5 0.75 10.5H17.25C17.4625 10.5 17.6406 10.5723 17.7844 10.7169C17.9281 10.8615 18 11.0406 18 11.2544C18 11.4681 17.9281 11.6458 17.7844 11.7875C17.6406 11.9292 17.4625 12 17.25 12H0.75ZM0.75 6.75C0.5375 6.75 0.359375 6.67771 0.215625 6.53313C0.071875 6.38853 0 6.20936 0 5.99563C0 5.78188 0.071875 5.60417 0.215625 5.4625C0.359375 5.32083 0.5375 5.25 0.75 5.25H17.25C17.4625 5.25 17.6406 5.32229 17.7844 5.46687C17.9281 5.61147 18 5.79064 18 6.00437C18 6.21812 17.9281 6.39583 17.7844 6.5375C17.6406 6.67917 17.4625 6.75 17.25 6.75H0.75ZM0.75 1.5C0.5375 1.5 0.359375 1.42771 0.215625 1.28313C0.071875 1.13853 0 0.959359 0 0.745625C0 0.531875 0.071875 0.354167 0.215625 0.2125C0.359375 0.0708333 0.5375 0 0.75 0H17.25C17.4625 0 17.6406 0.0722914 17.7844 0.216875C17.9281 0.361475 18 0.540641 18 0.754375C18 0.968125 17.9281 1.14583 17.7844 1.2875C17.6406 1.42917 17.4625 1.5 17.25 1.5H0.75Z" fill="#3C3C3C"/>
</svg>
