<svg width="16" height="14" viewBox="0 0 16 14" fill="none" xmlns="http://www.w3.org/2000/svg">
<path d="M15.7031 7.00684C15.7031 7.21712 15.6201 7.40251 15.4541 7.56299L9.93408 13.0664C9.7736 13.2214 9.59375 13.2988 9.39453 13.2988C9.18978 13.2988 9.01823 13.2297 8.87988 13.0913C8.74154 12.9585 8.67236 12.7897 8.67236 12.585C8.67236 12.4854 8.68896 12.3913 8.72217 12.3027C8.75537 12.2087 8.80518 12.1284 8.87158 12.062L10.731 10.1694L14.0264 7.17285L14.1924 7.57959L11.5195 7.74561L1.01904 7.74561C0.803223 7.74561 0.626139 7.67643 0.487793 7.53809C0.35498 7.39974 0.288574 7.22266 0.288574 7.00684C0.288574 6.79102 0.35498 6.61393 0.487793 6.47559C0.626139 6.33724 0.803223 6.26807 1.01904 6.26807L11.5195 6.26807L14.1924 6.43408L14.0264 6.84912L10.731 3.84424L8.87158 1.95166C8.80518 1.88525 8.75537 1.80778 8.72217 1.71924C8.68896 1.62516 8.67236 1.52832 8.67236 1.42871C8.67236 1.22396 8.74154 1.05518 8.87988 0.922363C9.01823 0.784017 9.18978 0.714844 9.39453 0.714844C9.49414 0.714844 9.58822 0.734212 9.67676 0.772949C9.77083 0.811686 9.86214 0.875326 9.95068 0.963867L15.4541 6.45068C15.6201 6.61117 15.7031 6.79655 15.7031 7.00684Z" fill="url(#paint0_linear_1954_164)"/>
<defs>
<linearGradient id="paint0_linear_1954_164" x1="-2" y1="-3" x2="19.4305" y2="19.9612" gradientUnits="userSpaceOnUse">
<stop stop-color="white"/>
<stop offset="1" stop-color="white" stop-opacity="0"/>
</linearGradient>
</defs>
</svg>
