<svg width="46" height="46" viewBox="0 0 46 46" fill="none" xmlns="http://www.w3.org/2000/svg">
<g filter="url(#filter0_b_6_88)">
<circle cx="23" cy="23" r="23" fill="url(#paint0_radial_6_88)" fill-opacity="0.2"/>
<circle cx="23" cy="23" r="22.5" stroke="url(#paint1_linear_6_88)" style="mix-blend-mode:overlay"/>
</g>
<path d="M23 31.4736C18.3765 31.4736 14.5332 27.6304 14.5332 23.0068C14.5332 18.375 18.3682 14.54 22.9917 14.54C27.6235 14.54 31.4668 18.375 31.4668 23.0068C31.4668 27.6304 27.6318 31.4736 23 31.4736ZM23 30.0625C26.918 30.0625 30.0557 26.9248 30.0557 23.0068C30.0557 19.0889 26.9097 15.9512 22.9917 15.9512C19.0737 15.9512 15.9526 19.0889 15.9526 23.0068C15.9526 26.9248 19.082 30.0625 23 30.0625ZM20.103 25.5635C19.7046 25.5635 19.5386 25.0903 19.7544 24.7334L22.5518 20.002C22.751 19.6616 23.2324 19.645 23.4482 20.002L26.229 24.7334C26.4614 25.1235 26.2871 25.5635 25.8887 25.5635L20.103 25.5635Z" fill="url(#paint2_linear_6_88)" style="mix-blend-mode:overlay"/>
<defs>
<filter id="filter0_b_6_88" x="-10" y="-10" width="66" height="66" filterUnits="userSpaceOnUse" color-interpolation-filters="sRGB">
<feFlood flood-opacity="0" result="BackgroundImageFix"/>
<feGaussianBlur in="BackgroundImageFix" stdDeviation="5"/>
<feComposite in2="SourceAlpha" operator="in" result="effect1_backgroundBlur_6_88"/>
<feBlend mode="normal" in="SourceGraphic" in2="effect1_backgroundBlur_6_88" result="shape"/>
</filter>
<radialGradient id="paint0_radial_6_88" cx="0" cy="0" r="1" gradientUnits="userSpaceOnUse" gradientTransform="translate(35.2746 30.6667) rotate(-92.637) scale(116.561 52.2744)">
<stop stop-color="#602EA6"/>
<stop offset="1" stop-color="#C977D6"/>
</radialGradient>
<linearGradient id="paint1_linear_6_88" x1="17.3937" y1="31.9063" x2="37.9468" y2="2.79559" gradientUnits="userSpaceOnUse">
<stop stop-color="white"/>
<stop offset="1" stop-color="white" stop-opacity="0.5"/>
</linearGradient>
<linearGradient id="paint2_linear_6_88" x1="23" y1="13" x2="23" y2="33" gradientUnits="userSpaceOnUse">
<stop stop-color="white" stop-opacity="0.8"/>
<stop offset="1" stop-color="white" stop-opacity="0.3"/>
</linearGradient>
</defs>
</svg>
