<svg width="32" height="33" viewBox="0 0 32 33" fill="none" xmlns="http://www.w3.org/2000/svg">
<path d="M20.8665 14.7332C21.3865 14.7332 21.8165 14.5632 22.1565 14.2232C22.4965 13.8832 22.6665 13.4532 22.6665 12.9332C22.6665 12.4132 22.4965 11.9832 22.1565 11.6432C21.8165 11.3032 21.3865 11.1332 20.8665 11.1332C20.3465 11.1332 19.9165 11.3032 19.5765 11.6432C19.2365 11.9832 19.0665 12.4132 19.0665 12.9332C19.0665 13.4532 19.2365 13.8832 19.5765 14.2232C19.9165 14.5632 20.3465 14.7332 20.8665 14.7332ZM11.1332 14.7332C11.6532 14.7332 12.0832 14.5632 12.4232 14.2232C12.7632 13.8832 12.9332 13.4532 12.9332 12.9332C12.9332 12.4132 12.7632 11.9832 12.4232 11.6432C12.0832 11.3032 11.6532 11.1332 11.1332 11.1332C10.6132 11.1332 10.1832 11.3032 9.84317 11.6432C9.50317 11.9832 9.33317 12.4132 9.33317 12.9332C9.33317 13.4532 9.50317 13.8832 9.84317 14.2232C10.1832 14.5632 10.6132 14.7332 11.1332 14.7332ZM15.9998 23.7998C17.2665 23.7998 18.4443 23.511 19.5332 22.9332C20.6221 22.3554 21.4887 21.5665 22.1332 20.5665C22.3109 20.2998 22.3332 20.0387 22.1998 19.7832C22.0665 19.5276 21.8398 19.3998 21.5198 19.3998C21.3954 19.3998 21.2554 19.4443 21.0998 19.5332C20.9443 19.6221 20.8221 19.7221 20.7332 19.8332C20.1998 20.5887 19.5165 21.1665 18.6832 21.5665C17.8498 21.9665 16.9609 22.1665 16.0165 22.1665C15.0721 22.1665 14.1776 21.9721 13.3332 21.5832C12.4887 21.1943 11.8109 20.6221 11.2998 19.8665C11.2203 19.7332 11.106 19.6221 10.9569 19.5332C10.8077 19.4443 10.6554 19.3998 10.4998 19.3998C10.2109 19.3998 9.99428 19.5276 9.84984 19.7832C9.70539 20.0387 9.74428 20.3332 9.9665 20.6665C10.5665 21.5998 11.4054 22.3554 12.4832 22.9332C13.5609 23.511 14.7332 23.7998 15.9998 23.7998ZM16.0087 29.8332C14.1702 29.8332 12.4424 29.4832 10.8254 28.7832C9.20835 28.0832 7.79428 27.1276 6.58317 25.9165C5.37206 24.7054 4.4165 23.2905 3.7165 21.6718C3.0165 20.0531 2.6665 18.3236 2.6665 16.4832C2.6665 14.6427 3.0165 12.9132 3.7165 11.2945C4.4165 9.67585 5.37206 8.2665 6.58317 7.0665C7.79428 5.8665 9.20918 4.9165 10.8279 4.2165C12.4465 3.5165 14.1761 3.1665 16.0165 3.1665C17.8569 3.1665 19.5865 3.5165 21.2051 4.2165C22.8238 4.9165 24.2332 5.8665 25.4332 7.0665C26.6332 8.2665 27.5832 9.67762 28.2832 11.2998C28.9832 12.9221 29.3332 14.6524 29.3332 16.491C29.3332 18.3295 28.9832 20.0573 28.2832 21.6743C27.5832 23.2913 26.6332 24.7033 25.4332 25.9104C24.2332 27.1174 22.8221 28.0729 21.1998 28.777C19.5776 29.4811 17.8472 29.8332 16.0087 29.8332ZM16.016 27.8332C19.1608 27.8332 21.8332 26.7278 24.0332 24.517C26.2332 22.3062 27.3332 19.6284 27.3332 16.4836C27.3332 13.3389 26.2332 10.6665 24.0332 8.4665C21.8332 6.2665 19.1608 5.1665 16.016 5.1665C12.8713 5.1665 10.1935 6.2665 7.9827 8.4665C5.7719 10.6665 4.6665 13.3389 4.6665 16.4836C4.6665 19.6284 5.7719 22.3062 7.9827 24.517C10.1935 26.7278 12.8713 27.8332 16.016 27.8332Z" fill="white"/>
</svg>
