<svg width="80" height="81" viewBox="0 0 80 81" fill="none" xmlns="http://www.w3.org/2000/svg">
<g clip-path="url(#clip0_373_3011)">
<path d="M63.9375 72.239C64.6194 72.5625 65.296 72.8988 65.9687 73.2425C66.4115 73.492 66.8593 73.7321 67.3159 73.948C69.4193 75.0944 71.4653 76.3971 73.2956 77.9784C73.5212 78.1733 73.744 78.3727 73.963 78.5758C74.0772 78.6819 74.1904 78.7891 74.3025 78.8971C74.3226 78.9166 74.4097 79.015 74.4894 79.0979C74.4224 79.1149 74.3557 79.1318 74.2888 79.1483C74.1068 79.1937 73.9245 79.2386 73.7423 79.2822C73.4165 79.3606 73.09 79.4347 72.7621 79.5008C71.49 79.7575 70.1834 79.893 68.8993 79.6491C67.7718 79.4347 66.7154 78.9059 65.9158 78.0404C65.174 77.2377 64.6529 76.2554 64.1579 75.2772C63.6477 74.2697 63.1587 73.2444 62.5082 72.3242C62.2074 71.8989 61.8717 71.5009 61.5142 71.125C62.3178 71.5058 63.1357 71.8579 63.9375 72.239ZM64.8394 71.3321C66.0071 71.4959 67.1488 71.7195 68.2428 72.1872C70.1456 73.0014 71.8218 74.3751 73.0519 76.0902C73.5039 76.7203 73.8664 77.3845 74.1781 78.0805C72.4561 76.4953 70.5335 75.1672 68.5234 74.0096C67.9664 73.6887 67.4026 73.3802 66.8346 73.0817C66.213 72.6999 65.572 72.3492 64.9395 71.9992C64.4015 71.7019 63.8603 71.4099 63.3159 71.1257C63.8233 71.1984 64.332 71.2612 64.8394 71.3321ZM56.5331 71.6929L56.5796 71.7341C56.6498 71.8457 56.7238 71.9545 56.7901 72.0686C57.9973 74.1565 58.4063 76.615 58.5092 79.0165C58.5406 79.7549 58.541 80.4937 58.5286 81.2325C58.5177 81.9023 58.4733 82.5867 58.5339 83.2562C58.4747 83.4181 58.4451 83.5902 58.4373 83.7644C57.6691 82.5702 56.9777 81.3093 56.6836 79.8996C56.2877 78.0008 56.7577 76.0951 56.8141 74.1892C56.8391 73.3421 56.7845 72.4939 56.5331 71.6929ZM59.5768 75.8119C60.0535 77.6449 59.3773 79.4894 58.962 81.2787C58.9757 80.6288 58.9768 79.9782 58.9588 79.3281C58.9225 78.0349 58.7948 76.7398 58.5096 75.4788C58.2772 74.4518 57.9275 73.4703 57.466 72.5537C58.3985 73.4684 59.2405 74.5178 59.5768 75.8119ZM42.7735 68.5993C42.8884 68.5409 42.9758 68.447 43.077 68.3512C43.2385 68.1996 43.3961 68.0438 43.5526 67.887C43.8664 67.573 44.1802 67.259 44.494 66.9452C45.1315 66.3069 45.7689 65.6687 46.4067 65.0313C47.6633 63.7755 48.9245 62.5255 50.198 61.2884C50.5562 60.9407 50.9148 60.5937 51.274 60.247C51.4535 60.0737 51.633 59.9008 51.8128 59.7278C51.8882 59.6551 51.9669 59.5835 52.0437 59.5101C50.8146 62.9551 47.9147 65.3778 44.9887 67.2561C44.2582 67.7255 43.5139 68.1716 42.7682 68.6148L42.7735 68.5993ZM49.5394 60.4079C50.1134 60.1009 50.706 59.838 51.3139 59.618C51.2473 59.69 51.181 59.7612 51.1143 59.8281C50.8005 60.1435 50.4875 60.4593 50.1744 60.7754C49.5387 61.4177 48.904 62.061 48.2676 62.7021C47.0149 63.9649 45.7658 65.2314 44.5286 66.5107C44.1806 66.8706 43.8329 67.2312 43.4867 67.5932C43.3256 67.7613 43.1641 67.9285 43.0079 68.1014C42.9755 68.1374 42.9416 68.1723 42.9081 68.2076C44.0815 64.8663 46.5002 62.0342 49.5394 60.4079ZM34.5366 73.7798C35.1645 73.561 35.7752 73.2903 36.4024 73.0693C37.6735 72.6213 38.9762 72.2684 40.3019 72.0474C42.8172 71.6284 45.4336 71.7044 47.8717 72.5177C49.0415 72.9077 50.1722 73.4595 51.1796 74.1948C51.6132 74.511 52.0462 74.8906 52.3096 75.3786C50.326 74.3031 48.0917 73.7909 45.8729 73.6007C43.2191 73.3729 40.5536 73.6028 37.9065 73.8151C36.6566 73.9149 35.4053 73.9961 34.1537 74.0618C34.1572 74.0607 34.1611 74.0588 34.1646 74.0578C34.215 74.0423 34.233 73.9936 34.2316 73.9447C34.3004 73.8995 34.3698 73.8559 34.4386 73.8107C34.4714 73.8001 34.5042 73.7909 34.5366 73.7798ZM38.8338 83.1519C38.5062 83.1305 38.178 83.106 37.8512 83.0759C37.6618 82.3179 37.4386 81.5704 37.1791 80.8411C37.0963 80.6083 37.0067 80.378 36.9165 80.1482C37.7048 80.772 38.6427 81.1448 39.6116 81.3614C40.8265 81.6332 42.0884 81.7392 43.3288 81.7803C44.4447 81.8175 45.569 81.7638 46.662 81.5219C46.6306 81.5372 46.6 81.5546 46.5686 81.5696C44.1464 82.731 41.5031 83.3263 38.8338 83.1519ZM37.9731 86.5393C38.1106 88.0242 38.1223 89.6608 37.6611 91.1109C37.6798 90.8436 37.6865 90.5752 37.6854 90.3112C37.6833 89.7258 37.6375 89.1424 37.556 88.5632C37.3854 87.346 37.0758 86.1585 36.762 84.9747C36.1302 82.59 35.4575 80.2153 34.6878 77.8748C34.4759 77.2304 34.2605 76.5871 34.0366 75.947C33.994 75.8247 33.9496 75.7029 33.9062 75.5806C36.1771 78.7656 37.6061 82.5823 37.9731 86.5393ZM36.0107 93.6164C36.3985 91.0646 36.0336 88.4763 35.613 85.9507C35.1797 83.349 34.7386 80.7437 34.1551 78.1733C33.9873 77.4337 33.8039 76.6984 33.6044 75.9676C33.7923 76.5 33.9802 77.0324 34.1632 77.5667C34.5528 78.7046 34.929 79.8481 35.2978 80.9935C35.6669 82.1383 36.0153 83.2903 36.3435 84.4488C36.6781 85.6301 37.0036 86.8187 37.2193 88.0308C37.3343 88.6771 37.4175 89.331 37.4482 89.9877C37.4774 90.6178 37.4192 91.2313 37.372 91.8548C37.2366 92.1464 37.0797 92.4284 36.8925 92.6942C36.652 93.0357 36.3517 93.3659 36.0107 93.6164ZM34.1526 93.9175C33.7708 93.751 33.438 93.4834 33.127 93.1958C33.2567 90.7146 33.2691 88.2277 33.2617 85.7432C33.2543 83.2496 33.2134 80.7543 33.1143 78.2626C33.0762 77.309 33.0484 76.3495 32.9962 75.3932C33.6072 77.4613 34.0818 79.5736 34.4989 81.6923C34.7481 82.9598 34.9815 84.2311 35.2149 85.502C35.4533 86.7981 35.6821 88.098 35.8189 89.4108C35.9673 90.837 36.0051 92.2952 35.8542 93.7239C35.3461 94.0474 34.7601 94.1825 34.1526 93.9175ZM31.6282 91.6081C30.8109 90.62 30.1033 89.5334 29.5311 88.373C29.2564 87.8163 28.9768 87.2436 28.7998 86.6436C28.6771 86.2268 28.6052 85.7711 28.6979 85.3492C29.401 84.3566 30.0222 83.3013 30.5581 82.1982C30.8003 81.7003 31.0211 81.1914 31.2284 80.6766C31.2097 80.8256 31.1885 80.9744 31.1709 81.1234C30.9467 83.0226 30.7778 84.9295 30.672 86.8397C30.6114 87.938 30.592 89.0358 30.5909 90.1356C30.5906 90.2556 30.7668 90.284 30.7728 90.1591C30.9622 86.3483 31.3112 82.5562 31.9043 78.7903C32.1673 77.956 32.3894 77.1082 32.5742 76.2514C32.6034 76.7871 32.6334 77.3229 32.6556 77.8586C32.7064 79.0873 32.7543 80.3163 32.7903 81.5457C32.8636 84.0445 32.9021 86.544 32.9003 89.0439C32.8996 90.3552 32.8922 91.6665 32.8975 92.9778C32.8601 92.9418 32.822 92.9058 32.785 92.8698C32.3778 92.4715 31.9931 92.0487 31.6282 91.6081ZM26.9467 86.7834C26.2144 87.6101 25.4105 88.369 24.5474 89.0454C24.1169 89.3828 23.6716 89.6994 23.2122 89.9929C22.7267 90.3031 22.1693 90.6887 21.5809 90.7063C21.1359 90.7195 20.8094 90.4495 20.5443 90.1184C22.4665 88.5244 24.2139 86.6865 25.8269 84.761C27.5087 82.7532 29.0544 80.6116 30.3998 78.3437C31.087 77.1852 31.7646 75.9944 32.334 74.764C32.3104 74.91 32.2875 75.0558 32.2614 75.2013C32.1786 75.2145 32.0992 75.2706 32.0746 75.3779C31.8718 76.2594 31.7378 77.1654 31.5982 78.061C30.6713 81.2773 29.1528 84.2935 26.9467 86.7834ZM18.5328 85.079C21.0672 81.7017 24.1733 78.842 27.8091 76.8078C28.302 76.532 28.7998 76.2672 29.3061 76.0186C29.4637 75.9543 29.6203 75.8875 29.7765 75.8192C28.6447 76.705 27.5817 77.6865 26.5828 78.7363C24.7925 80.6182 23.2055 82.6811 21.7187 84.8278C20.9395 85.9528 20.2002 87.1066 19.4619 88.2614C19.0035 87.2546 18.6926 86.1802 18.5328 85.079ZM18.6675 81.0056C18.6936 81.0565 18.7719 81.0838 18.8237 81.0276C19.818 79.9542 21.0055 79.0722 22.2878 78.4117C23.2443 77.9189 24.246 77.5326 25.2653 77.205C25.8622 77.0938 26.4545 76.9564 27.0408 76.7927C26.4429 77.161 25.8558 77.5491 25.2861 77.9612C23.5383 79.2243 21.9218 80.6872 20.478 82.3142C19.7658 83.117 19.1054 83.9699 18.4976 84.8612C18.3358 83.5745 18.401 82.2716 18.6675 81.0056ZM20.002 77.4845C21.1944 77.5771 22.3939 77.5665 23.5835 77.4488C22.4968 77.9229 21.4465 78.4958 20.4879 79.2081C19.8243 79.7012 19.2197 80.2616 18.6876 80.905C18.6894 80.8965 18.6904 80.888 18.6926 80.88C18.9605 79.6685 19.4372 78.5652 20.002 77.4845ZM18.0128 76.749C16.7139 76.5151 15.4379 76.1567 14.2039 75.6742C13.5894 75.4337 12.9851 75.1637 12.3956 74.8633C11.8921 74.607 11.3798 74.342 10.9579 73.9512C10.7848 73.7912 10.6408 73.6036 10.5392 73.3976C13.5629 73.9931 16.6 74.5204 19.6336 75.058C22.5162 75.5688 25.4514 76.073 28.3796 75.6995C28.6133 75.6698 28.8457 75.6272 29.0777 75.5838C28.7113 75.7329 28.3401 75.8677 27.9663 75.9951C27.9621 75.9962 27.9572 75.9977 27.9526 75.9988C27.5581 76.1017 27.1639 76.2062 26.7722 76.3208C26.5335 76.391 26.2962 76.4677 26.0586 76.5419C25.9489 76.5675 25.8403 76.5966 25.7303 76.6205C23.9121 77.0115 22.0522 77.1393 20.2044 77.0145C20.1691 76.9359 20.0426 76.8987 19.9791 76.9822L19.9657 77.0009C19.312 76.9491 18.6605 76.8655 18.0128 76.749ZM10.4163 72.4928C10.542 71.9038 10.992 71.422 11.4134 71.0383C11.842 70.6483 12.2968 70.2858 12.7668 69.9459C12.7598 69.9645 12.7601 69.9859 12.7813 70.0028C13.3063 70.4258 13.8714 70.8025 14.425 71.1838C14.9799 71.566 15.5455 71.9316 16.1184 72.2838C17.2558 72.9833 18.4475 73.584 19.7178 73.9719C21.0756 74.3864 22.4718 74.5583 23.8747 74.7073C25.2067 74.8494 26.5416 74.9794 27.8821 74.9629C29.1559 74.9471 30.4249 74.7812 31.6222 74.3342C31.2323 74.559 30.8356 74.7701 30.433 74.9692C28.5365 75.5485 26.5102 75.6488 24.5383 75.4972C23.0356 75.3816 21.5463 75.1347 20.0613 74.8758C18.5681 74.6155 17.0749 74.357 15.5814 74.0985C13.8972 73.807 12.2133 73.5155 10.5247 73.2528C10.5056 73.25 10.4917 73.2562 10.4799 73.2646C10.3891 73.0264 10.3577 72.7663 10.4163 72.4928ZM14.8431 68.6537C16.923 69.9657 19.1297 71.0736 21.4271 71.9078C23.7337 72.7446 26.1192 73.362 28.5389 73.7116C29.4345 73.8411 30.3371 73.9296 31.2411 73.9792C29.0505 74.7544 26.6639 74.6211 24.381 74.4444C23.0063 74.338 21.6158 74.212 20.2724 73.8764C18.9954 73.5572 17.7759 73.0179 16.6173 72.3798C15.9583 72.0169 15.323 71.6129 14.6972 71.1921C14.0759 70.7743 13.4762 70.3164 12.844 69.9172C12.8331 69.9106 12.8225 69.911 12.8123 69.9113C13.3408 69.5316 13.8891 69.1817 14.4497 68.8638C14.5791 68.7906 14.712 68.7238 14.8431 68.6537ZM22.3181 66.4234C22.585 67.1173 22.9288 67.7838 23.3674 68.4032C24.3482 69.7884 25.6845 70.8467 27.0521 71.7859C28.1698 72.5537 29.3633 73.2947 30.6569 73.6928C28.9275 73.5118 27.2097 73.2338 25.5159 72.8119C23.1801 72.2303 20.8993 71.3938 18.7186 70.3458C17.5298 69.7743 16.3701 69.1383 15.2461 68.4385C17.1864 67.4607 19.2898 66.8273 21.4296 66.5662C21.7268 66.5298 22.0212 66.4652 22.3181 66.4234ZM22.151 66.1233C22.1689 66.1259 22.1869 66.1266 22.2049 66.1244L22.212 66.1465C22.1905 66.1465 22.1689 66.1487 22.1474 66.149C22.1496 66.1406 22.1499 66.1317 22.151 66.1233ZM22.372 59.958C22.3784 59.9272 22.3868 59.8971 22.3935 59.8662C22.1965 61.707 22.7549 63.6513 23.6614 65.2112C25.04 67.5836 27.1325 69.3396 29.1877 71.0438C29.7955 71.5476 30.4041 72.0521 30.9971 72.575C31.307 72.8489 31.6049 73.1349 31.9014 73.423C30.6047 73.2731 29.3724 72.6723 28.2625 71.9787C26.9273 71.1437 25.5903 70.2065 24.5079 69.0307C23.4312 67.8606 22.689 66.4288 22.3435 64.8477C21.9916 63.2368 22.0307 61.5667 22.372 59.958ZM24.2245 55.2652C24.2375 55.2425 24.2513 55.2186 24.2647 55.1955C24.1434 56.3231 24.3045 57.4846 24.5418 58.5825C24.8337 59.9323 25.272 61.2381 25.8008 62.5064C26.9002 65.1433 28.4236 67.5478 30.0927 69.828C30.9601 71.0129 31.8641 72.1689 32.7698 73.3227C32.7667 73.3571 32.7624 73.392 32.7593 73.4265C32.7272 73.4331 32.6965 73.4446 32.6693 73.4618C32.5784 73.4647 32.4888 73.4571 32.3982 73.4552C32.1158 73.1677 31.8232 72.8897 31.5281 72.622C31.0182 72.159 30.4933 71.7143 29.9616 71.2789C28.9134 70.4195 27.8507 69.5799 26.8455 68.6654C24.9222 66.9158 23.1815 64.8113 22.6668 62.1304C22.3844 60.6598 22.5064 59.1429 23.1124 57.775C23.1329 57.7284 23.0885 57.6976 23.0518 57.7078C23.38 56.8622 23.777 56.0441 24.2245 55.2652ZM25.6076 53.6015C25.7465 53.5276 25.8854 53.4906 26.0237 53.47C26.7242 54.6414 27.4357 55.7984 28.0732 57.0098C28.7135 58.226 29.3097 59.4682 29.854 60.7339C30.4037 62.0114 30.8966 63.3157 31.3366 64.6384C31.7925 66.0084 32.2064 67.4007 32.4881 68.8219C32.7511 70.1464 32.8781 71.4976 32.8044 72.8461C31.203 70.8639 29.6245 68.8579 28.2509 66.695C26.7792 64.3784 25.5364 61.8848 24.8573 59.1866C24.5012 57.7706 24.2883 56.3169 24.4582 54.865C24.7572 54.3656 25.1094 53.8658 25.6076 53.6015ZM27.6152 54.0828C30.0582 56.0815 31.4456 59.1726 32.5096 62.1319C33.1147 63.8136 33.6005 65.5534 33.7796 67.3446C33.952 69.0693 33.8046 70.789 33.2952 72.4414C33.2218 72.6785 33.1347 72.9106 33.0424 73.1405C33.0307 73.1262 33.0191 73.1118 33.0078 73.0975C33.2412 70.4037 32.5974 67.6954 31.7918 65.1516C30.9386 62.4587 29.8685 59.8299 28.5816 57.33C27.9032 56.0129 27.1822 54.6931 26.3628 53.4616C26.8141 53.5137 27.2457 53.7806 27.6152 54.0828ZM31.9011 59.4274C32.5777 58.2858 33.487 57.3168 34.5443 56.5684C35.6645 60.6036 35.6652 65.0144 34.5126 69.0411C34.3645 69.5589 34.1956 70.0704 34.0155 70.5775C34.4157 68.0812 33.9686 65.4242 33.2314 63.0367C32.8541 61.8139 32.4155 60.6014 31.8983 59.43L31.9011 59.4274ZM39.4839 54.8775C39.5132 57.5151 39.1511 60.1692 38.46 62.7051C37.756 65.2879 36.7504 67.7764 35.3856 70.0579C34.7591 71.1052 34.0585 72.095 33.2959 73.0358C33.4859 72.6084 33.6428 72.1715 33.7669 71.7261C34.55 70.0196 35.0418 68.1643 35.3433 66.3052C35.6888 64.1717 35.736 61.9949 35.4794 59.8472C35.3401 58.6831 35.1056 57.5353 34.789 56.4102C35.356 56.0345 35.9582 55.7147 36.5914 55.4705C37.5159 55.1139 38.4981 54.9116 39.4839 54.8775ZM41.1728 55.133C41.598 55.458 41.6117 56.0892 41.6237 56.5879C41.7274 60.9153 40.2998 65.282 37.8977 68.7895C37.2222 69.7751 36.4648 70.7074 35.6356 71.5564C35.2146 71.9871 34.7753 72.4002 34.3212 72.792C34.0402 73.0348 33.7503 73.265 33.4612 73.496C33.4179 73.4981 33.3741 73.4974 33.3308 73.4967C33.3029 73.4626 33.2754 73.4284 33.2476 73.3943C34.8091 71.4397 36.12 69.2882 37.1763 66.9951C38.2954 64.5646 39.0453 61.9321 39.4212 59.267C39.6267 57.8107 39.7106 56.3393 39.6983 54.8679C40.1852 54.8525 40.78 54.8327 41.1728 55.133ZM20.3384 89.8385C20.0422 89.4009 19.7862 88.9356 19.5574 88.4564C22.3886 84.3251 25.2219 80.046 29.0851 76.8815C29.9186 76.1986 30.7908 75.5688 31.6984 74.9989C31.2548 75.9198 30.8116 76.8386 30.3127 77.732C29.6763 78.8717 29.0008 79.9815 28.2787 81.0643C26.8229 83.247 25.174 85.2897 23.3688 87.1669C22.4277 88.1451 21.4395 89.0704 20.4382 89.9802C20.404 89.9333 20.3705 89.886 20.3384 89.8385ZM47.5308 80.8565C46.3362 81.2651 45.0596 81.3919 43.8076 81.3816C42.6134 81.372 41.4016 81.282 40.2212 81.0911C39.0069 80.8946 37.7845 80.5389 36.7723 79.7901C36.2286 78.4711 35.5651 77.2036 34.7901 76.0157C35.229 76.3997 35.7145 76.7318 36.1969 77.0199C37.1323 77.5789 38.142 77.989 39.1839 78.2736C40.3929 78.604 41.6396 78.7594 42.8866 78.8196C44.1034 78.878 45.3162 78.8182 46.5326 78.7895C47.7187 78.7615 48.9784 78.8222 50.0182 79.4788C49.9716 79.5126 49.9233 79.547 49.8775 79.5804C49.5619 79.8092 49.2397 80.0274 48.9139 80.24C48.47 80.4845 48.0085 80.6934 47.5308 80.8565ZM41.1008 76.6337C42.4064 76.9201 43.7162 77.1856 45.0331 77.4081C46.3542 77.6314 47.6944 77.8682 49.0313 77.952C49.728 77.9953 50.4377 77.9747 51.1157 77.7885C51.4264 77.703 51.7588 77.5748 52.0603 77.3993C51.8692 77.6559 51.6859 77.9203 51.4792 78.1627C51.1937 78.4972 50.8788 78.8024 50.5499 79.0906C50.4867 79.1377 50.424 79.1836 50.3609 79.2295L50.3464 79.2144C49.4385 78.5883 48.3593 78.4084 47.2892 78.3852C46.1011 78.3592 44.9136 78.4616 43.7251 78.4443C41.3582 78.4094 38.9494 78.0926 36.7998 77.0013C36.2526 76.7233 35.7276 76.3976 35.2372 76.0208C34.8426 75.7183 34.4788 75.379 34.1138 75.0401C34.0007 74.8855 33.8864 74.732 33.7694 74.5806C36.1785 75.3988 38.6205 76.0899 41.1008 76.6337ZM52.5225 75.9922C52.561 76.2394 52.5483 76.4901 52.488 76.7369C52.2807 76.8749 52.0786 77.0192 51.8533 77.1272C51.5787 77.2586 51.2899 77.3553 50.9959 77.4272C50.3944 77.5738 49.7745 77.5914 49.1604 77.5488C47.8625 77.4584 46.5633 77.2157 45.2824 76.9872C42.7491 76.5353 40.2483 75.9437 37.7715 75.2305C36.7962 74.9502 35.827 74.6482 34.8613 74.3347C37.0342 74.3116 39.2075 74.0754 41.3758 73.9748C43.8742 73.8587 46.4067 73.9149 48.8504 74.5223C50.1317 74.8407 51.3661 75.336 52.5225 75.9922ZM6.79162 79.9212C6.76599 80.8491 6.60941 81.7792 6.23371 82.6263C5.47553 84.3361 3.83757 85.2144 2.11848 85.5093C1.73245 85.5754 1.34338 85.6136 0.953184 85.6374C2.53456 85.1924 3.9878 84.1745 4.99567 82.8591C5.86956 81.7191 6.34498 80.3645 6.56713 78.9338C6.61353 78.6342 6.64879 78.3334 6.68021 78.032C6.69121 78.1124 6.70333 78.1928 6.71187 78.2729C6.77096 78.8199 6.80678 79.3704 6.79162 79.9212ZM-0.827465 85.5023C-0.40589 85.3151 -0.0257435 84.9665 0.250641 84.6342C0.811058 83.9615 1.12591 83.11 1.51579 82.3286C2.25577 80.8451 3.2671 79.5051 4.46832 78.3969C4.79872 78.0921 5.14375 77.8066 5.50377 77.5406C5.69285 77.4008 5.88621 77.2678 6.0833 77.1409C6.18699 77.074 6.29801 77.0138 6.4046 76.9472C6.38379 77.1786 6.36303 77.4081 6.34043 77.6331C6.19087 79.1278 5.92711 80.6376 5.14513 81.9272C4.48955 83.0083 3.56101 83.9083 2.48674 84.5263C1.47076 85.1105 0.329723 85.4351 -0.827465 85.5023ZM2.99096 76.6869C2.03227 77.6423 0.908688 78.4308 -0.394325 78.7613C-1.77251 79.1104 -3.20308 79.0054 -4.60168 78.8792C-5.11855 78.8321 -5.63557 78.7848 -6.15326 78.7505C-2.89966 78.2199 0.148041 76.5708 2.89471 74.6908C4.23778 73.7717 5.54438 72.7821 6.85991 71.8064C5.53776 73.4009 4.45951 75.2229 2.99096 76.6869ZM-1.96395 76.5261C0.301765 75.1987 2.41803 73.6113 4.70853 72.3279C5.3743 71.9549 6.05477 71.6108 6.75058 71.3053C3.91041 73.406 1.11293 75.5843 -2.09328 77.0505C-3.16395 77.5403 -4.28076 77.9475 -5.42318 78.2343C-4.21698 77.7764 -3.05627 77.1661 -1.96395 76.5261ZM14.8453 63.9947C15.2415 63.1152 15.5465 62.2009 15.7447 61.2392C16.0243 59.8817 16.1092 58.4742 16.0049 57.0902C15.9509 56.3756 15.8582 55.6328 15.6646 54.9388C15.7062 54.9355 15.7454 54.9116 15.7616 54.8613L15.7708 54.8294L15.793 54.8352C16.3486 55.0468 16.4752 55.8774 16.5559 56.4002C16.7675 57.7681 16.691 59.1737 16.368 60.5162C16.0683 61.761 15.5476 62.9449 14.8453 63.9947ZM3.78852 67.8973C3.46295 67.7959 3.14356 67.6759 2.83012 67.54C2.7969 67.5257 2.76814 67.5311 2.74539 67.5462C2.78065 67.4977 2.80174 67.436 2.79208 67.3586C2.73714 66.9179 2.78795 66.4935 2.91012 66.0922C3.05802 65.806 3.21682 65.5028 3.32439 65.1947C3.44656 65.0023 3.58347 64.8183 3.7344 64.6467L3.79706 64.6292C3.80919 64.6262 3.81772 64.6197 3.82861 64.6152C4.67973 65.394 5.76901 65.7217 6.88156 65.9015C8.31845 66.1336 9.78685 66.1924 11.2381 66.1134C11.8135 66.0823 12.3867 66.0246 12.9576 65.9463L12.9131 65.9702C12.5912 66.1303 12.2619 66.2746 11.9277 66.4036C11.239 66.6698 10.526 66.8643 9.80103 66.9881C8.35631 67.2348 6.87948 67.1947 5.44633 66.8864C4.62836 66.7101 3.82184 66.4469 3.05309 66.1068C2.97845 66.0738 2.936 66.1883 3.0057 66.2262C5.66902 67.6641 8.90404 67.7787 11.7313 66.8063C11.9376 66.7355 12.1417 66.6576 12.3434 66.5743C12.129 66.7249 11.9097 66.8688 11.6823 66.9998C9.31708 68.3629 6.38203 68.7045 3.78852 67.8973ZM2.59252 72.0517C0.920816 73.511 -1.12204 74.4709 -3.278 74.8168C-3.28379 74.8175 -3.28971 74.8179 -3.29549 74.819C-2.51708 74.5072 -1.7816 74.0526 -1.11242 73.5397C0.402283 72.3782 1.67994 70.9032 3.27866 69.8581C4.15309 69.2864 5.12873 68.8498 6.15504 68.6953C6.20931 68.6871 6.24664 68.6593 6.27062 68.6233C6.41151 68.6317 6.55254 68.639 6.69371 68.6419C5.11731 69.4362 3.92638 70.8874 2.59252 72.0517ZM-6.50791 74.6493C-4.76348 74.0765 -3.14152 73.0854 -1.71663 71.9001C-0.279739 70.7053 1.00043 69.2724 2.01835 67.677C2.10582 67.5396 2.1872 67.399 2.27065 67.2594C2.27506 67.3186 2.27851 67.3777 2.28581 67.4364C2.31596 67.6787 2.57944 67.7063 2.7144 67.5803C2.68673 67.6285 2.69127 67.6987 2.7552 67.7291C3.56418 68.1125 4.41614 68.3702 5.28436 68.5124C3.85008 68.9486 2.6074 69.9113 1.47379 70.912C0.0384254 72.1792 -1.31335 73.6164 -3.05211 74.4349C-3.53429 74.6618 -4.04263 74.8391 -4.56282 74.9431C-4.66405 74.9478 -4.76499 74.9582 -4.86625 74.96C-5.35517 74.9688 -5.96555 75.0062 -6.40091 74.7308C-6.44057 74.7056 -6.47417 74.6772 -6.50791 74.6493ZM-6.84755 73.6906C-5.66092 72.441 -4.46079 71.2024 -3.19811 70.0359C-1.9196 68.8549 -0.577911 67.7482 0.812433 66.7138C1.40176 66.2753 2.00389 65.8578 2.60835 65.4437C2.48495 65.7168 2.38594 66.004 2.32396 66.3099C2.3186 66.336 2.3161 66.3624 2.31155 66.3888C2.17137 66.6613 2.02716 66.9315 1.87513 67.1966C1.41167 68.0038 0.88323 68.7829 0.298025 69.4994C-0.874004 70.9348 -2.29065 72.1601 -3.84791 73.1177C-4.72645 73.6582 -5.65443 74.1092 -6.59923 74.5086C-6.61259 74.5145 -6.61615 74.5249 -6.62373 74.5338C-6.81684 74.3038 -6.87343 74.0056 -6.84755 73.6906ZM-6.33177 72.2478C-5.2819 70.4687 -3.88881 68.9081 -2.29284 67.6483C-0.89329 66.543 0.674295 65.6709 2.33485 65.0772C1.1026 65.9397 -0.0834599 66.8801 -1.23321 67.855C-2.57698 68.9948 -3.87336 70.2029 -5.09733 71.4811C-5.69064 72.1006 -6.25727 72.7421 -6.804 73.4049C-6.71216 72.9765 -6.50901 72.5479 -6.33177 72.2478ZM-5.67453 64.6076C-5.91199 64.5316 -6.14723 64.4467 -6.38106 64.3574C-4.79986 64.465 -3.19592 64.1441 -1.65104 63.7615C-0.517445 63.4806 0.611078 63.1813 1.75254 62.9349C2.89344 62.6889 4.0421 62.4847 5.19594 62.3177C5.96265 62.2064 6.73101 62.115 7.50089 62.0404C7.43711 62.0695 7.37351 62.0988 7.30959 62.1278C6.56795 62.3471 5.83441 62.5898 5.13892 62.943C4.51779 63.2581 3.93438 63.6789 3.45301 64.1929C3.4124 64.1835 3.36875 64.182 3.32041 64.2025C0.484926 65.4091 -2.74763 65.5409 -5.67453 64.6076ZM-10.692 61.4783C-7.84964 60.7652 -4.93454 60.3935 -2.0094 60.4262C-0.528585 60.4424 0.950855 60.5547 2.41775 60.7659C3.906 60.9803 5.36824 61.3571 6.85759 61.5598C7.10383 61.5932 7.35091 61.6178 7.598 61.6373C5.79475 61.8543 4.00077 62.1444 2.22108 62.5218C1.09132 62.7616 -0.0265884 63.0488 -1.14422 63.3425C-2.24231 63.6311 -3.34658 63.9091 -4.4726 64.0498C-5.31906 64.1552 -6.18827 64.1794 -7.04189 64.0839C-7.99726 63.658 -8.90638 63.1149 -9.71568 62.44C-10.0663 62.1477 -10.3922 61.8253 -10.692 61.4783ZM-11.7874 59.7506C-10.428 59.2475 -9.062 58.8425 -7.62639 58.638C-6.13563 58.4254 -4.62537 58.3659 -3.12262 58.436C0.00634193 58.5818 3.05252 59.3044 6.05974 60.1762C6.81228 60.3943 7.56411 60.6271 8.32352 60.8085C8.31855 60.8232 8.31115 60.836 8.30699 60.8507C8.28125 60.9454 8.27917 61.0417 8.29296 61.1342C8.25742 61.2293 8.21155 61.3204 8.15989 61.4081C6.34924 61.3204 4.50785 60.7685 2.76771 60.4839C-0.134829 60.0091 -3.09495 59.9221 -6.01928 60.2158C-7.67525 60.3818 -9.32051 60.6689 -10.9352 61.0879C-10.9563 61.0934 -10.972 61.1045 -10.9891 61.1144C-11.0818 60.9925 -11.1736 60.8698 -11.2587 60.7417C-11.4583 60.4406 -11.649 60.1049 -11.7874 59.7506ZM-11.9946 58.5752C-11.9896 58.5054 -11.9763 58.4408 -11.9639 58.3754C-11.9487 58.3732 -11.9332 58.3677 -11.9179 58.3545C-9.6636 56.4289 -6.59852 55.9842 -3.78687 56.4219C-0.654736 56.9096 2.21241 58.3501 5.15296 59.4983C4.07693 59.2126 2.99276 58.9593 1.89978 58.7555C-1.10441 58.1951 -4.17044 57.9028 -7.20894 58.3438C-8.77377 58.5711 -10.3828 58.9413 -11.8426 59.5945C-11.9545 59.2648 -12.019 58.9214 -11.9946 58.5752ZM-10.7401 56.9481C-10.0195 56.5692 -9.25387 56.2662 -8.50659 55.9493C-6.92441 55.2792 -5.30612 54.6759 -3.62367 54.3454C-0.817663 53.7939 2.23155 54.0884 4.5522 55.9082C4.56944 55.9251 4.58266 55.946 4.60082 55.9618L4.64257 55.9831C4.7446 56.0657 4.84734 56.1469 4.94638 56.2354C5.88924 57.0788 6.67249 58.0912 7.56506 58.9886C7.56729 59.0151 7.58093 59.0415 7.61108 59.0625C7.66618 59.101 7.71879 59.1429 7.76892 59.1873C7.77044 59.1888 7.77182 59.1902 7.77319 59.1917C8.07397 59.4612 8.28358 59.8365 8.35974 60.2404C7.61672 60.0263 6.88498 59.7708 6.16111 59.495C4.57632 58.8913 3.02485 58.1981 1.44569 57.5793C-1.4939 56.4267 -4.64808 55.5135 -7.80472 56.1138C-9.3014 56.3984 -10.7212 57.0182 -11.8737 58.0585C-11.6676 57.5558 -11.2294 57.2059 -10.7401 56.9481ZM-9.67764 51.367C-9.914 50.702 -10.07 50.0073 -10.1433 49.3023C-10.1966 48.7893 -10.2273 48.2337 -10.1609 47.7053C-9.98642 48.5407 -9.49518 49.2711 -8.86936 49.8358C-7.97579 50.6418 -6.82442 51.0457 -5.69755 51.3476C-4.4342 51.6861 -3.15693 51.9564 -1.905 52.3427C-0.704203 52.7132 0.477064 53.1656 1.59469 53.7575C1.37352 53.7707 1.15027 53.7586 0.929348 53.7472C0.818357 53.7417 0.706804 53.7443 0.595531 53.7491C-0.732691 53.5445 -2.10816 53.5875 -3.42662 53.8225C-4.75607 54.0593 -6.04928 54.4688 -7.31443 54.9538L-7.3567 54.8966C-8.40343 53.947 -9.19658 52.7213 -9.67764 51.367ZM-8.65615 45.7291C-8.01598 45.4669 -7.3359 45.2987 -6.66974 45.1136C-6.66506 45.1283 -6.65596 45.1412 -6.63932 45.1474C-5.71381 45.4849 -4.81238 45.8781 -3.96235 46.39C-3.12456 46.8945 -2.33761 47.4953 -1.6056 48.1537C-0.0364952 49.5652 1.29751 51.2462 2.52503 52.979C2.53688 52.9959 2.54816 53.0136 2.56001 53.0301C2.46418 53.2783 2.29449 53.4917 2.05431 53.5383C1.10592 53.0246 0.108095 52.6126 -0.909966 52.2759C-2.13887 51.8697 -3.39492 51.5609 -4.65291 51.2697C-5.84877 50.9929 -7.09421 50.7112 -8.14492 50.0227C-9.10664 49.3922 -9.90089 48.3975 -10.0611 47.2001C-10.0542 47.1751 -10.0492 47.1494 -10.0418 47.1248C-9.82515 46.4109 -9.30454 45.9949 -8.65615 45.7291ZM-3.93217 44.3238C-3.68759 44.2522 -3.44273 44.178 -3.19744 44.1042C-2.44406 44.5357 -1.73175 45.0409 -1.10663 45.6575C-0.461807 46.2934 0.0952988 47.0238 0.590561 47.7898C1.40148 49.0445 2.02261 50.4068 2.65118 51.7651C2.65961 51.8363 2.66402 51.9083 2.6735 51.9795C2.67735 52.1459 2.67294 52.3111 2.6625 52.4749C2.12317 51.7423 1.56511 51.0244 0.971762 50.3381C-0.368977 48.7875 -1.89524 47.4013 -3.62959 46.347C-4.52728 45.8018 -5.48364 45.3358 -6.49236 45.0641C-6.46962 45.0578 -6.44649 45.0516 -6.42389 45.045C-5.5933 44.8048 -4.7621 44.5665 -3.93217 44.3238ZM0.903471 43.9995C1.32547 44.2713 1.68245 44.6891 1.84291 45.1783L1.84315 45.2234C1.87912 46.4855 2.02455 47.7442 2.27481 48.9799C2.35054 49.3537 2.43925 49.7246 2.53371 50.0936C2.54598 50.2067 2.56265 50.3194 2.57323 50.4329L2.56347 50.4931C2.5647 50.5732 2.57147 50.6528 2.57408 50.7329C2.49115 50.5676 2.41059 50.4013 2.32604 50.2368C1.47186 48.5756 0.549519 46.9449 -0.75695 45.6196C-1.39666 44.9704 -2.12096 44.3939 -2.94538 44.0297C-2.48372 43.8942 -2.01973 43.7678 -1.54859 43.6834C-0.725819 43.5354 0.170784 43.5281 0.903471 43.9995ZM3.54021 54.4596L3.54683 54.4695C3.52794 54.4559 3.50869 54.4434 3.48979 54.4302C3.49709 54.4258 3.50523 54.4236 3.51239 54.4188C3.52148 54.4324 3.53111 54.4456 3.54021 54.4596ZM2.1189 54.056C2.18212 54.0931 2.24601 54.1287 2.3088 54.1666C2.21791 54.1354 2.12592 54.1078 2.03418 54.0792C2.06284 54.0729 2.09052 54.0638 2.1189 54.056ZM2.30453 42.8028C2.32315 42.6442 2.35287 42.4735 2.40054 42.3097C2.4157 43.6511 2.80558 44.9594 3.16436 46.2424C3.57754 47.72 4.00613 49.1954 4.5222 50.6385C5.46685 53.2802 6.73789 55.8307 8.65075 57.8573C9.35742 58.606 10.14 59.2662 10.9943 59.813L10.9053 59.8428C10.5489 59.9456 10.1737 59.9408 9.81041 59.885C9.61085 59.8541 9.41182 59.8137 9.21448 59.7697C9.13582 59.7524 9.05995 59.7341 8.98432 59.7197C8.73586 59.5336 8.49692 59.3334 8.27078 59.1208C7.20561 58.1213 6.3418 56.9132 5.27071 55.9192C5.28351 55.8854 5.28545 55.8476 5.2692 55.8113C5.06481 55.3486 4.78839 54.9384 4.5321 54.5073C3.92349 53.2592 3.40993 51.9667 3.02992 50.618C3.00475 50.2911 2.97528 49.9651 2.93258 49.6401C2.88946 49.3115 2.83629 48.985 2.77268 48.66C2.7198 48.3898 2.65947 47.9921 2.45646 47.7997C2.45205 47.7957 2.44613 47.7949 2.44116 47.792C2.37438 47.3223 2.31846 46.8509 2.28197 46.3775C2.19118 45.1988 2.1664 43.9794 2.30453 42.8028ZM4.54036 42.1195C5.41383 42.823 6.08178 43.7671 6.63846 44.7512C7.84783 46.8887 8.66372 49.2509 9.44556 51.5848C10.1189 53.5952 10.7733 55.62 11.6043 57.5657C11.6901 57.8055 11.7838 58.0424 11.8762 58.2799C11.8762 58.2836 11.8745 58.2869 11.8745 58.2906C11.8808 58.4301 11.9044 58.5664 11.9309 58.7022C11.9238 58.8124 11.8977 58.9181 11.8572 59.0184C10.3595 57.3454 9.35248 55.2564 8.55147 53.1391C7.56605 50.5342 6.8591 47.7993 5.56875 45.3284C4.86194 43.9749 3.99774 42.7143 2.99717 41.5793C2.99921 41.5786 3.00087 41.5775 3.00295 41.5768C3.54599 41.4056 4.13077 41.7894 4.54036 42.1195ZM8.09188 43.2347C8.0372 42.5847 8.01739 41.9322 8.04753 41.2801C8.12051 40.799 8.1741 40.3147 8.22244 39.8322C8.22671 39.79 8.2296 39.7477 8.23372 39.7059C8.55615 37.9936 9.28225 36.3328 10.4687 35.1085C10.8323 34.7333 11.2396 34.398 11.6805 34.127C11.8195 34.0418 11.9753 33.9441 12.1354 33.8681C10.8681 35.3538 9.94097 37.0988 9.27026 38.9561C8.61345 40.7752 8.2632 42.7217 8.27007 44.6667C8.20467 44.2544 8.1471 43.8409 8.10743 43.4252C8.10401 43.3617 8.09834 43.2982 8.09188 43.2347ZM-6.88831 29.6435C-7.38427 28.8643 -7.78117 28.0117 -8.06986 27.1238C-7.81367 27.6419 -7.49745 28.1299 -7.16018 28.5702C-6.24708 29.7625 -5.12765 30.7947 -3.96193 31.7101C-1.85557 33.3647 0.443323 34.7311 2.57062 36.3526C1.27367 35.5965 -0.0932598 34.958 -1.4121 34.2548C-3.53746 33.1209 -5.547 31.7505 -6.88831 29.6435ZM-7.59663 23.9413C-7.04076 24.0029 -6.48863 24.3231 -5.99241 24.5739C-5.45241 24.8471 -4.92696 25.1508 -4.41918 25.4842C-3.46628 26.1103 -2.59542 26.8381 -1.74455 27.6033L-1.73217 27.639C-1.71275 27.6882 -1.68602 27.7197 -1.64872 27.7554C-1.6191 27.784 -1.57834 27.7961 -1.53716 27.7965C-1.47035 27.8618 -1.40329 27.9268 -1.33648 27.9922C-1.11227 29.255 -0.672508 30.4609 0.0665245 31.5162C1.02398 32.8837 2.31846 33.9287 3.44808 35.1298C4.41079 36.1536 5.23327 37.3158 5.90521 38.5668C5.68143 38.2995 5.44908 38.0439 5.22143 37.8005C4.13574 36.6401 2.98959 35.5426 1.82841 34.4648C-0.504364 32.2998 -2.96425 30.2784 -5.22059 28.0256C-5.83305 27.4139 -6.45005 26.7962 -7.00194 26.1243C-7.51399 25.5004 -7.90457 24.8247 -8.16378 24.0547C-8.02797 23.9585 -7.84343 23.9137 -7.59663 23.9413ZM-2.799 23.3842C-2.92761 22.7802 -3.01784 22.1673 -3.06618 21.5504C-3.1093 21.0007 -3.1667 20.3981 -3.0349 19.8565C-2.90505 19.323 -2.52381 18.9892 -1.98987 18.9929C-1.48452 18.9969 -1.00375 19.2253 -0.564936 19.4655C0.350245 19.9656 1.1916 20.6302 1.91092 21.4028C2.57545 22.1163 3.12677 22.9282 3.60384 23.7863C3.41476 23.5943 3.22236 23.4062 3.02153 23.2267C2.44722 22.7137 1.81809 22.2059 1.13624 21.8574C0.570463 21.5684 -0.101511 21.4616 -0.626637 21.8023C-0.654596 21.7737 -0.709564 21.7729 -0.728849 21.8196C-0.739462 21.8449 -0.74757 21.8717 -0.757477 21.8978C-0.817274 21.9481 -0.876472 22.0002 -0.930876 22.0649C-1.38235 22.6021 -1.43647 23.3927 -1.47931 24.0712C-1.53452 24.9426 -1.55299 25.8195 -1.4939 26.6916C-1.4866 26.7981 -1.47187 26.9031 -1.46058 27.0088L-1.46968 27.0011L-1.49362 26.9813L-1.51636 26.9567L-1.52158 26.9416C-2.09977 25.8221 -2.53456 24.6257 -2.799 23.3842ZM4.65896 22.9113C4.85478 22.4361 5.0786 21.9723 5.33242 21.528C5.69039 20.9012 6.10325 20.3063 6.56301 19.7548C6.17352 20.8373 6.22612 22.1824 6.28987 23.2711C6.41616 25.4288 6.76324 27.5651 7.21045 29.6743C6.51108 27.723 5.48434 25.8911 4.13091 24.3602L4.12844 24.343L4.12143 24.3239C4.33089 23.866 4.46656 23.378 4.65896 22.9113ZM9.05939 18.0477C8.73145 19.1666 8.54142 20.3456 8.35864 21.4968C8.16582 22.7115 8.00578 23.9354 7.90058 25.1618C7.7513 26.9024 7.71135 28.6488 7.75471 30.3941L7.7422 30.3404C7.50819 29.3156 7.28868 28.2863 7.10055 27.2512C6.90825 26.1922 6.74769 25.1251 6.64756 24.0521C6.55127 23.0229 6.45639 21.9551 6.5714 20.9236C6.64922 20.2248 6.88058 19.4996 7.30504 18.9407C7.5907 18.6488 7.89796 18.3591 8.25107 18.1769C8.51716 18.04 8.79164 17.9978 9.05939 18.0477ZM10.4963 19.2396C10.7931 19.6568 11.068 20.0934 11.3385 20.5296C11.6386 21.0128 11.9302 21.5166 12.1946 22.0366C12.196 22.1089 12.1967 22.1813 12.1942 22.254C12.1854 22.5422 12.1523 22.8294 12.1005 23.1125C11.9982 23.6732 11.8205 24.217 11.6083 24.7421C11.1784 25.8052 10.6052 26.7966 10.1386 27.8417C9.34518 29.6189 8.80765 31.492 8.48303 33.4157C8.43399 33.2299 8.38205 33.0445 8.32007 32.8591L8.29324 32.8205C8.24117 32.5238 8.1825 32.2286 8.11681 31.9348C8.05663 31.0308 8.0263 30.1249 8.0226 29.2183C8.01298 26.8135 8.15729 24.3903 8.50531 22.0116C8.60449 21.3349 8.71866 20.6607 8.84537 19.9891C8.96493 19.3549 9.11284 18.7267 9.22591 18.0918C9.32604 18.1252 9.42476 18.1711 9.52133 18.2306C9.91727 18.4759 10.2254 18.8585 10.4963 19.2396ZM12.3934 20.1899C12.6321 20.0647 12.8758 19.9494 13.1222 19.8407C13.5926 19.6333 14.077 19.4566 14.5709 19.3208C15.0765 19.182 15.5902 19.0711 16.1085 18.9991C16.3493 18.9657 16.5912 18.9404 16.8334 18.9235C17.0838 18.9062 17.375 18.8596 17.6232 18.9062C18.0897 18.994 17.8689 19.7063 17.7963 20.028C17.6965 20.4708 17.5569 20.9045 17.387 21.3235C17.0474 22.1607 16.5799 22.9392 16.0102 23.6273C15.5472 24.1869 15.0053 24.665 14.4359 25.1042C14.194 25.1717 13.9539 25.2467 13.7163 25.3296C13.6158 24.4417 13.3606 23.5825 13.0168 22.7567C13.015 22.7537 13.0143 22.7504 13.0129 22.7479C12.6822 21.9558 12.2707 21.195 11.8321 20.4716C12.0275 20.397 12.2034 20.2895 12.3934 20.1899ZM17.7713 25.2334C17.2565 26.9556 16.0743 28.4292 14.8953 29.7103C14.5773 30.0559 14.2501 30.3922 13.9212 30.7267C13.6176 31.0356 13.3278 31.3715 13.0066 31.6594C12.678 31.9539 12.3733 32.2631 12.0772 32.5928C11.7687 32.9369 11.4161 33.2332 11.1101 33.5799C10.7661 33.9698 10.4503 34.3829 10.1566 34.8118C10.0944 34.8768 10.0312 34.9411 9.97139 35.0083C11.3154 32.435 13.8238 30.6342 14.9888 27.9184C15.3255 27.133 15.5504 26.2671 15.5684 25.4027C16.295 25.2716 17.0333 25.2162 17.7713 25.2334ZM19.4344 25.3906C18.8163 27.2919 17.2519 28.6756 15.738 29.8176C14.8978 30.4517 14.0269 31.04 13.2125 31.7112C12.7294 32.1096 12.2665 32.5334 11.8198 32.9755C11.8727 32.9156 11.9217 32.8521 11.9767 32.7952C12.2806 32.4786 12.6145 32.1966 12.9114 31.872C13.2357 31.5173 13.5985 31.2059 13.9434 30.8733C14.267 30.5604 14.5861 30.2428 14.8978 29.9174C15.5017 29.2877 16.0796 28.6293 16.5898 27.914C17.1684 27.104 17.6204 26.2289 17.986 25.2951C17.9938 25.2757 17.9952 25.2573 17.993 25.2404C18.2624 25.2518 18.5314 25.2698 18.7997 25.3006C19.0106 25.3252 19.2232 25.3546 19.4344 25.3906ZM9.17274 36.0757C9.37779 35.6373 9.61345 35.2125 9.8586 34.7931C9.73467 35.0421 9.62435 35.2976 9.52408 35.558C9.40082 35.7258 9.28373 35.8988 9.17274 36.0757ZM13.7593 25.8672C13.7939 25.8694 13.8302 25.8657 13.8683 25.8522C14.2878 25.7027 14.7155 25.5819 15.1478 25.4861C15.1541 26.2502 15.0113 26.9769 14.7219 27.6874C14.4031 28.4688 13.9624 29.1871 13.4758 29.8653C12.6903 30.9606 11.7708 31.9466 10.967 33.0265C11.017 32.9505 11.0673 32.873 11.1169 32.7974C12.3198 30.9636 13.5682 28.9675 13.7449 26.6931C13.7664 26.4155 13.7703 26.14 13.7593 25.8672ZM9.52545 34.2603C9.91385 33.364 10.3693 32.4944 10.7991 31.619C11.6584 29.869 12.4897 28.0858 12.8966 26.154C13.0157 25.5896 13.0894 25.0164 13.113 24.441C13.2759 25.1185 13.3553 25.8147 13.3123 26.5263C13.18 28.6998 12.0113 30.6151 10.8791 32.3755C10.188 33.4499 9.48509 34.5559 8.96148 35.7335C9.13364 35.2371 9.31571 34.7446 9.52545 34.2603ZM12.4319 22.525C12.5324 22.7427 12.6261 22.963 12.7136 23.1859C13.1071 27.0595 10.9035 30.5799 9.44503 33.9743C9.19795 34.5493 8.96299 35.1372 8.76287 35.7364C8.76357 35.6722 8.76893 35.6079 8.76837 35.5437C8.76452 35.0722 8.72401 34.6147 8.64772 34.1637C8.76699 33.173 8.96299 32.1886 9.22094 31.2283C9.50934 30.1543 9.87595 29.103 10.3189 28.0873C10.776 27.0397 11.3442 26.0482 11.7849 24.9926C12.0229 24.4227 12.2179 23.8326 12.331 23.2215C12.3709 23.0053 12.41 22.7673 12.4319 22.525ZM7.3928 40.1157C7.31964 39.3857 7.23139 38.6572 7.13302 37.9316C6.93967 36.505 6.6941 35.0858 6.3754 33.6834C5.7828 31.0756 4.95424 28.4956 3.79956 26.0964C3.27056 24.997 2.66829 23.9391 1.99878 22.927C4.39672 24.7476 6.0742 27.451 6.99104 30.3658C8.05553 33.7499 8.0861 37.3745 7.63752 40.8761C7.55861 40.6217 7.47819 40.3679 7.3928 40.1157ZM7.14613 40.5905C7.14116 40.5761 7.13538 40.5622 7.13041 40.5479C7.14088 40.5372 7.15357 40.5284 7.16045 40.5152C7.17987 40.5824 7.19736 40.6507 7.21637 40.7182C7.19391 40.6779 7.17258 40.6356 7.14969 40.596L7.14613 40.5905ZM1.33026 22.5099C2.81136 24.6202 3.99609 26.9729 4.87023 29.4213C5.80346 32.0354 6.41465 34.7641 6.82811 37.5159C6.90772 38.045 6.97563 38.5753 7.0387 39.1062C6.90744 38.7412 6.77494 38.3766 6.6441 38.012C6.1432 36.6152 5.65661 35.2125 5.1476 33.8186C4.16247 31.1215 3.26364 28.3869 2.03143 25.7967C1.41224 24.4946 0.687517 23.1969 -0.191031 22.0597C-0.156338 22.048 -0.126017 22.0307 -0.0884304 22.0226C0.382715 21.9242 0.866695 22.1413 1.30149 22.4218C1.30301 22.4508 1.30974 22.4805 1.33026 22.5099ZM-0.329592 22.1093C0.377216 23.2094 1.08156 24.3 1.67639 25.4739C2.30387 26.7125 2.84126 27.9944 3.32274 29.3013C4.32 32.0086 5.23934 34.7498 6.18177 37.4781C6.498 38.3939 6.80484 39.3104 7.07974 40.2372C7.02435 40.1329 6.96142 40.0334 6.89944 39.9335C6.73418 39.5171 6.55141 39.1081 6.35337 38.7064C6.32005 38.6193 6.28934 38.5312 6.25546 38.4445C5.98042 37.7421 5.66077 37.0584 5.34275 36.3761C5.02529 35.6942 4.68498 35.023 4.31368 34.3712C2.84056 31.7857 0.755566 29.5521 -0.254669 26.6964C-0.527634 25.9249 -0.720598 25.1196 -0.790266 24.2996C-0.824713 23.895 -0.828838 23.4874 -0.797142 23.0824C-0.782158 22.8892 -0.753351 22.6994 -0.721268 22.5099C-0.623745 22.3425 -0.499109 22.1996 -0.329592 22.1093ZM-0.869738 28.1582L-0.886944 28.1372C-1.17137 26.6765 -1.17024 25.1336 -1.02896 23.6618C-1.02455 23.6167 -1.01807 23.5686 -1.01257 23.5215C-1.01352 23.6332 -1.01324 23.7444 -1.01049 23.8531C-0.992716 24.5817 -0.869032 25.3036 -0.676632 26.0034C-0.287848 27.4172 0.390297 28.7178 1.15397 29.9468C1.95252 31.2324 2.85201 32.446 3.64996 33.7323C4.24895 34.6976 4.77986 35.7115 5.22597 36.7635C5.12348 36.6122 5.01936 36.4624 4.91179 36.3144C3.96661 35.0167 2.79581 33.9603 1.69871 32.8102C1.15288 32.2381 0.628988 31.6381 0.199129 30.9651C-0.249701 30.2622 -0.572235 29.4761 -0.774155 28.659C-0.806381 28.5287 -0.832153 28.3965 -0.859407 28.2647C-0.843859 28.2312 -0.842873 28.1912 -0.869738 28.1582ZM-8.49968 25.0161C-8.50229 24.6716 -8.44461 24.3551 -8.27037 24.1542C-7.96574 25.4894 -6.87797 26.5587 -5.98236 27.4899C-4.89336 28.6219 -3.76043 29.71 -2.60963 30.7734C-0.525414 32.6986 1.63259 34.5471 3.6238 36.5788C2.70809 35.8569 1.74895 35.1963 0.778833 34.5563C-0.485607 33.7224 -1.77378 32.9285 -3.00902 32.0468C-4.23105 31.1747 -5.4553 30.2215 -6.46906 29.0905C-7.01294 28.4835 -7.50768 27.8193 -7.87992 27.0834C-8.20909 26.4323 -8.40382 25.7391 -8.49968 25.0161ZM20.6765 26.0049C20.795 26.3868 20.5104 26.7771 20.2894 27.0511C20.0464 27.3518 19.7845 27.6367 19.5116 27.9081C17.3002 30.1043 14.4437 31.3554 12.0056 33.2277C11.7715 33.4077 11.5484 33.599 11.3244 33.7896C11.9245 33.1477 12.5581 32.54 13.2315 31.9785C14.817 30.6566 16.6582 29.6453 18.0889 28.1277C18.8117 27.3606 19.4072 26.4709 19.7757 25.4629C19.8427 25.478 19.9118 25.4879 19.978 25.5055C20.246 25.5775 20.5831 25.7027 20.6765 26.0049ZM12.7453 34.1744C12.7048 34.4384 12.5701 34.6734 12.4484 34.9047C12.2796 35.226 12.1057 35.5448 11.9302 35.8624C11.6022 36.4551 11.2669 37.0433 10.9528 37.6444C10.3358 38.825 9.80117 40.0452 9.44831 41.3407C9.11696 42.5576 8.91342 43.8137 8.8429 45.0765C8.79841 45.8748 8.81135 46.6871 8.87375 47.4975C8.74524 46.9985 8.62776 46.4965 8.51952 45.9923C8.29419 42.7423 8.97346 39.4231 10.6274 36.6372C11.2112 35.6542 11.8949 34.741 12.6642 33.9082C12.6826 33.8883 12.6917 33.8674 12.7009 33.8468C12.7548 33.9262 12.7647 34.047 12.7453 34.1744ZM10.5939 46.6155C10.6778 45.5491 10.7906 44.4413 11.0585 43.4054C11.074 43.3452 11.0937 43.2828 11.1123 43.2207C11.1473 44.1571 11.1937 45.0927 11.213 46.0302C11.2356 47.1251 11.2381 48.2209 11.2576 49.3159C11.294 51.3612 11.4006 53.4105 11.8216 55.4143C11.8907 55.7419 11.9696 56.0687 12.0546 56.3944C11.9037 56.2996 11.7641 56.1843 11.6493 56.0452C11.6194 56.0092 11.5931 55.971 11.5668 55.9328C10.6872 52.9265 10.3475 49.7503 10.5939 46.6155ZM12.7883 42.4518C13.1786 42.7573 13.4572 43.1891 13.7198 43.6107C13.9938 44.0506 14.2413 44.5085 14.4641 44.9792C14.907 45.9141 15.2525 46.9008 15.4887 47.9139C15.7517 49.0412 15.8906 50.2038 15.8878 51.3645C15.8857 52.2876 15.7743 53.1909 15.6326 54.095C15.5342 54.1299 15.4393 54.1691 15.3491 54.2161C15.3325 54.2 15.3135 54.1871 15.2937 54.1754C15.329 53.3562 15.3297 52.5307 15.3152 51.7133C15.2976 50.7421 15.2412 49.7701 15.1055 48.8088C14.8756 47.1766 14.4292 45.5719 13.6077 44.1508C13.1853 43.4208 12.6628 42.7188 12.018 42.1852C12.2852 42.1588 12.5592 42.2722 12.7883 42.4518ZM14.6601 61.8139C14.6284 61.2289 14.5368 60.6557 14.4179 60.084C14.3643 59.8262 14.3019 59.5685 14.2335 59.3144C14.1658 59.0632 14.0929 58.7048 13.925 58.5072C13.8975 58.4746 13.8637 58.4657 13.8302 58.4657C13.857 58.4125 13.887 58.3611 13.9123 58.3071C14.2226 57.6487 14.3844 56.9613 14.5181 56.2453C14.5889 55.8671 14.6774 55.4694 14.9196 55.1661C15.0071 55.0567 15.1189 54.963 15.2415 54.8962C15.3766 55.5373 15.5328 56.1652 15.6149 56.8185C15.7006 57.5018 15.7419 58.1955 15.72 58.8844C15.677 60.2368 15.4379 61.5719 15.0339 62.8571C14.8816 63.3414 14.7035 63.8214 14.5015 64.2889C14.6679 63.478 14.7046 62.6276 14.6601 61.8139ZM13.9747 62.6537C13.7953 61.6545 13.4381 60.6987 12.9269 59.8339C13.2294 59.4781 13.4959 59.0904 13.7212 58.6769C13.7604 58.9035 13.8898 59.1418 13.9652 59.3522C14.0639 59.6287 14.1535 59.9044 14.223 60.1909C14.3502 60.7178 14.4162 61.2664 14.4461 61.8084C14.5054 62.8806 14.3527 63.9088 14.126 64.9468C14.1013 64.9755 14.078 65.0052 14.0534 65.0334C14.168 64.248 14.1123 63.4171 13.9747 62.6537ZM11.4127 42.5891C12.2083 44.6366 12.7781 46.7469 13.0834 48.934C13.3895 51.1265 13.4547 53.3536 13.2749 55.5608C13.2481 55.8898 13.2114 56.217 13.1709 56.5431C13.1264 56.5776 13.0817 56.6125 13.0341 56.643C12.8525 56.6521 12.6702 56.6312 12.4946 56.5857C12.3998 56.2695 12.312 55.9508 12.2369 55.6269C12.0127 54.6572 11.8663 53.6712 11.7585 52.6809C11.5311 50.5882 11.5158 48.4794 11.4628 46.3764C11.4333 45.2029 11.4088 44.0205 11.2451 42.8576C11.2916 42.7551 11.3447 42.6567 11.4091 42.5682C11.411 42.5752 11.4099 42.5818 11.4127 42.5891ZM11.8269 42.2315C12.3578 42.7786 12.85 43.3496 13.2534 44.0069C13.6638 44.6759 13.9857 45.4011 14.2385 46.1491C14.8058 47.8287 14.9736 49.6129 14.988 51.3839C14.9962 52.3647 14.9422 53.3433 14.9299 54.323C14.365 54.8778 13.8739 55.5281 13.4667 56.2133C13.4533 56.2357 13.4402 56.2603 13.4272 56.2842C13.4367 56.195 13.4469 56.1054 13.4558 56.0165C13.5668 54.9193 13.6109 53.8141 13.5989 52.7106C13.5739 50.4619 13.2805 48.2513 12.8 46.0614C12.5302 44.8309 12.1865 43.6147 11.7616 42.4323C11.7398 42.3717 11.7003 42.3376 11.6554 42.3229C11.7112 42.2836 11.7687 42.2539 11.8269 42.2315ZM2.67474 41.7868C3.58911 42.819 4.39947 43.9518 5.06869 45.172C5.74176 46.3985 6.28257 47.6961 6.77276 49.0118C7.71202 51.533 8.49431 54.1431 9.80723 56.4913C10.3577 57.4758 10.9991 58.3963 11.762 59.206C11.6643 59.3613 11.5317 59.4968 11.3814 59.6059C9.53578 58.4599 8.04449 56.7645 6.88484 54.8878C5.35956 52.4187 4.42013 49.6133 3.59157 46.8255C3.12223 45.2458 2.57309 43.6162 2.55603 41.9447C2.59086 41.8878 2.62986 41.8345 2.67474 41.7868ZM13.5795 65.5377C12.2087 65.7749 10.8188 65.882 9.42959 65.842C8.13913 65.805 6.78901 65.704 5.54907 65.3034C4.98894 65.1227 4.42922 64.8562 3.94761 64.4966C3.96055 64.4654 3.96964 64.4327 3.97073 64.399C4.20488 64.168 4.45951 63.9613 4.72479 63.7857C6.00178 62.9397 7.53037 62.632 8.96299 62.1972C9.70876 61.9707 10.4317 61.6916 11.102 61.3167C11.1808 61.4089 11.2882 61.4852 11.3703 61.5631C11.5404 61.725 11.6982 61.9016 11.8498 62.0819C12.1339 62.4209 12.3913 62.784 12.6194 63.1663C12.8521 63.557 13.0535 63.9693 13.2213 64.3946C13.3637 64.754 13.4434 65.1584 13.6112 65.5072C13.6007 65.5174 13.5897 65.5273 13.5795 65.5377ZM13.7791 65.3331C13.7431 64.9729 13.595 64.6024 13.4737 64.2811C13.3115 63.8496 13.1134 63.4351 12.8842 63.0378C12.6501 62.6324 12.3832 62.2475 12.0867 61.8892C11.9421 61.7144 11.7888 61.5484 11.6328 61.3846C11.5674 61.316 11.4922 61.2179 11.4084 61.1368C11.89 60.8371 12.3399 60.4809 12.7436 60.0462C13.2382 60.8643 13.5816 61.7731 13.7487 62.7249C13.9014 63.5963 13.8662 64.4449 13.7974 65.3133C13.7911 65.3199 13.7851 65.3265 13.7791 65.3331ZM-5.55003 39.5403C-5.80096 39.9409 -6.07999 40.3224 -6.38356 40.6812C-6.99351 41.402 -7.71643 42.02 -8.50342 42.5201C-10.2346 43.6206 -12.2965 44.0767 -14.3096 43.8501C-14.8202 43.7928 -15.3241 43.6922 -15.8202 43.5563C-15.3034 43.5431 -14.7825 43.4513 -14.2811 43.3074C-12.922 42.9174 -11.6368 42.2425 -10.3882 41.5731C-8.66028 40.647 -6.95526 39.624 -5.16372 38.829C-5.28603 39.0695 -5.40692 39.3115 -5.55003 39.5403ZM-17.118 42.9343C-13.7787 42.1848 -11.2917 39.2854 -7.94508 38.5257C-7.10123 38.3344 -6.22353 38.29 -5.37967 38.4776C-5.46714 38.5161 -5.55501 38.5543 -5.64177 38.5944C-8.30922 39.8171 -10.7621 41.5224 -13.4939 42.5976C-14.6129 43.0378 -15.9607 43.3735 -17.118 42.9343ZM-10.5716 35.0641C-12.2827 34.4336 -13.8106 33.3239 -14.9842 31.8831C-15.3912 31.3833 -15.7308 30.8446 -16.0547 30.2934C-15.0018 31.2364 -13.7761 31.93 -12.4998 32.5143C-10.7403 33.3195 -8.93642 34.0323 -7.11871 34.6811C-6.38811 34.9422 -5.65277 35.189 -4.91512 35.4284C-6.7893 35.8499 -8.76136 35.7309 -10.5716 35.0641ZM-16.5235 29.4805C-15.702 29.5914 -14.8821 29.7019 -14.0764 29.9138C-13.2292 30.137 -12.4036 30.4513 -11.6061 30.8222C-9.99594 31.5713 -8.51086 32.6039 -7.08938 33.6823C-6.61464 34.0426 -6.1468 34.4123 -5.68088 34.785C-7.6633 34.1388 -9.62285 33.4183 -11.5537 32.6031C-13.2269 31.897 -14.9444 31.1053 -16.3128 29.8513C-16.3831 29.728 -16.4533 29.6042 -16.5235 29.4805ZM3.49765 18.1211C3.05432 16.4878 2.33799 14.946 1.40409 13.5554C1.0445 13.02 0.65254 12.5122 0.229309 12.0326C0.296652 12.0844 0.363569 12.1373 0.428303 12.192C0.675247 12.402 0.916693 12.6183 1.14174 12.8537C1.58891 13.3215 1.9784 13.8513 2.31458 14.4102C2.9911 15.5353 3.42907 16.8213 3.57934 18.1391C3.59806 18.3033 3.611 18.4685 3.62133 18.6337C3.58096 18.4626 3.5438 18.2908 3.49765 18.1211ZM1.07426 16.0667C0.721542 15.337 0.472658 14.5608 0.276943 13.7713C0.125866 13.1625 0.0387077 12.528 -0.106201 11.9144C1.64705 14.0059 2.82582 16.5653 3.33994 19.2859C2.48731 18.2886 1.65379 17.2652 1.07426 16.0667ZM0.776615 4.39153C0.164721 3.62446 -0.486172 2.89262 -1.15261 2.17732C-1.6582 1.6346 -2.16683 1.06397 -2.71938 0.560539C-1.00717 1.41978 0.743576 2.30291 2.0664 3.74894C3.68786 5.52142 4.2919 7.93391 4.39894 10.3244C4.4105 10.5818 4.41449 10.8396 4.41558 11.097C3.72076 8.62315 2.34917 6.36303 0.776615 4.39153ZM1.48564 9.08729C0.587244 8.54677 -0.246948 7.97027 -0.902527 7.11836C-1.53191 6.30061 -1.98381 5.35249 -2.31667 4.36729C-2.70422 3.2209 -2.93079 2.02603 -3.13972 0.831894C-2.70066 1.34818 -2.20896 1.82445 -1.74885 2.31429C-1.1671 2.93375 -0.59882 3.56607 -0.0487652 4.21602C1.03336 5.49424 2.03252 6.86169 2.81439 8.36281C3.24729 9.19341 3.61294 10.0655 3.89045 10.9659C3.25621 10.1301 2.35675 9.61128 1.48564 9.08729ZM5.18465 14.6948C6.51904 11.686 10.1035 10.0582 11.8096 7.26744C12.0916 6.80587 12.3296 6.31345 12.4996 5.79864C12.5119 6.31786 12.4745 6.83966 12.3952 7.35227C12.2358 8.38557 11.8942 9.39793 11.3781 10.2976C10.4475 11.9202 8.99892 13.19 7.31058 13.8803C6.84214 14.072 6.35668 14.2237 5.90108 14.4488C5.64353 14.5758 5.37733 14.7311 5.15461 14.9305C5.16385 14.852 5.17598 14.7737 5.18465 14.6948ZM5.58158 12.6811C5.83938 11.8395 6.1957 11.0283 6.6287 10.2693C7.53189 8.6852 8.74027 7.29609 10.1135 6.14014C10.8057 5.55776 11.5446 5.03892 12.3183 4.58212C12.1181 6.46402 10.8736 8.01727 9.56015 9.25216C8.07838 10.6449 6.38588 11.8839 5.33436 13.6909C5.40113 13.3501 5.48008 13.0123 5.58158 12.6811ZM18.6192 49.8905C18.6904 47.5753 19.1365 45.2877 19.1135 42.9677C19.1082 42.4063 19.0822 41.8228 19.012 41.2455C19.0839 41.5015 19.1537 41.7578 19.2179 42.0156C19.4457 42.9266 19.6301 43.8497 19.7697 44.7798C20.0514 46.6526 20.1635 48.5525 20.0813 50.4465C20.0087 52.1253 19.8039 53.8089 19.6731 55.4914C18.7666 53.806 18.5603 51.8011 18.6192 49.8905ZM20.8545 41.681C21.5421 42.6644 22.029 43.7965 22.2638 44.9888C22.5187 46.2828 22.4923 47.6337 22.1788 48.9145C21.8834 50.1219 21.3094 51.2293 20.7802 52.3379C20.5707 52.7767 20.3567 53.2273 20.1716 53.6892C20.2703 52.7092 20.3666 51.7284 20.4216 50.7443C20.5252 48.8962 20.4657 47.0341 20.2213 45.1999C20.0831 44.1607 19.8895 43.1293 19.642 42.1125C19.4397 41.2812 19.2073 40.4561 18.9066 39.6581C19.6339 40.2475 20.3084 40.9007 20.8545 41.681ZM27.1445 47.2573C28.155 45.7992 29.0763 44.2643 29.6933 42.5774L29.6922 42.5487C30.0501 44.0847 29.8241 45.75 29.0949 47.1336C28.2805 48.6788 26.8416 49.6041 25.4761 50.5577C24.9719 50.9102 24.4833 51.2822 24.0298 51.6979C25.0022 50.1722 26.1213 48.7342 27.1445 47.2573ZM27.8532 43.8931C28.3739 43.4091 28.938 42.9769 29.5346 42.6001C28.326 45.6549 26.1072 48.1023 24.264 50.7424C24.1903 50.8478 24.118 50.9547 24.0454 51.0612C24.4822 48.3105 25.853 45.7529 27.8532 43.8931ZM59.1199 60.6524C60.9237 59.5233 63.1234 59.0926 64.7237 57.6142C65.0527 57.3102 65.3746 56.9375 65.6313 56.5251C65.4331 57.4424 65.1225 58.3266 64.6525 59.1443C63.9382 60.3873 62.9503 61.4114 61.7596 62.1583C59.7655 63.4094 57.4646 63.8919 55.2377 64.5436C56.2235 62.9595 57.5668 61.6248 59.1199 60.6524ZM64.2802 61.8627C63.7453 62.7477 63.0543 63.5327 62.1975 64.0872C61.2262 64.7159 60.0824 65.0037 58.9521 65.0958C57.7293 65.1954 56.5084 65.0508 55.2895 64.9447C56.1029 64.7103 56.9223 64.4944 57.7308 64.2663C59.1322 63.8717 60.5337 63.4042 61.8005 62.6518C63.0187 61.9284 64.0722 60.944 64.8401 59.7168C65.1426 59.2332 65.4084 58.7132 65.6253 58.1713C65.3672 59.4697 64.9653 60.7284 64.2802 61.8627ZM64.7015 66.3146C65.9997 65.6155 67.3413 65.024 68.7523 64.6185C70.1206 64.2253 71.527 63.9921 72.944 63.9065C74.428 63.817 75.8905 63.9506 77.3583 64.147C75.9095 65.4183 74.1548 66.2949 72.2854 66.6371C70.0233 67.0516 67.727 66.6583 65.45 66.7821C64.6828 66.824 63.9199 66.9242 63.1865 67.1375C63.7013 66.8628 64.2065 66.5809 64.7015 66.3146ZM64.9155 65.4778C66.0427 64.6288 67.2097 63.8063 68.5259 63.3095C69.9136 62.7851 71.4181 62.672 72.8792 62.8314C73.9489 62.9482 74.9925 63.2151 76.0076 63.5742C75.215 63.4876 74.4139 63.4648 73.621 63.481C72.2022 63.5103 70.7884 63.7057 69.4095 64.0542C68.0221 64.4045 66.6731 64.9082 65.3908 65.5619C64.6726 65.9277 63.9724 66.3304 63.2662 66.7211C63.8254 66.3125 64.3726 65.8865 64.9155 65.4778ZM61.9359 67.7698L61.9994 67.7768C64.1818 66.9752 66.4845 67.1522 68.7533 67.2357C69.9066 67.2778 71.0694 67.2884 72.2117 67.0956C73.2 66.9293 74.1692 66.6202 75.0789 66.1849C76.1144 65.6892 77.0762 65.0298 77.921 64.2334C78.0398 64.1213 78.0257 63.9227 77.8713 63.8526C75.1811 62.6276 72.1493 61.8506 69.2374 62.6368C67.8839 63.0021 66.6692 63.7149 65.5265 64.5385C64.3782 65.3662 63.3004 66.3026 62.1006 67.0509C61.1578 67.6387 60.1434 68.1558 59.0716 68.4098C58.5054 68.5124 57.9317 68.5579 57.3598 68.5197C56.4643 68.2203 55.5561 67.964 54.6341 67.7655C53.1416 67.4433 51.6235 67.2856 50.1056 67.3053C51.4785 66.2433 53.056 65.6188 54.681 65.1212L54.6838 65.1224L54.7571 65.137L54.7628 65.1382C57.1413 65.628 59.8455 65.8678 62.0643 64.6453C64.014 63.5713 65.2022 61.4959 65.7899 59.3434C66.177 57.9252 66.347 56.4572 66.4912 54.9942C66.5152 54.7508 66.2254 54.6707 66.1009 54.8092C66.0554 54.7842 65.9881 54.793 65.9712 54.8499C65.9539 54.9098 65.9355 54.9685 65.9179 55.028C65.8802 55.0548 65.8523 55.1004 65.8456 55.1668C65.8407 55.2153 65.8333 55.2634 65.828 55.3115C65.73 55.6086 65.6172 55.8976 65.4553 56.1696C65.2106 56.5813 64.8954 56.9522 64.5506 57.2757C63.776 58.0023 62.8325 58.4694 61.8802 58.8873C60.8987 59.318 59.9076 59.7186 58.988 60.2849C58.1524 60.7989 57.3789 61.4122 56.6755 62.1084C55.8861 62.8901 55.2 63.7755 54.6143 64.7316C54.2741 64.8381 53.9367 64.9505 53.6032 65.0727C52.2168 65.5807 50.8809 66.261 49.807 67.3157C49.008 67.3384 48.2091 67.4056 47.4148 67.5297C46.1152 67.7324 44.8395 68.0673 43.5928 68.4966C46.5365 66.8339 49.4149 64.9179 51.2998 61.967C51.8653 61.0813 52.3198 60.1292 52.6332 59.1164C52.6787 58.9688 52.5761 58.7698 52.4041 58.8109C52.3219 58.8307 52.2412 58.8554 52.1594 58.8766L52.1171 58.8884C48.5 59.8424 45.3353 62.3838 43.4631 65.7407C42.9265 66.7032 42.4956 67.722 42.1903 68.7888C42.1727 68.8502 42.1801 68.9052 42.197 68.9547C42.1413 68.9879 42.0859 69.0213 42.0306 69.054L41.9788 69.1112C41.526 69.3003 41.0765 69.4982 40.6333 69.7094C38.6702 70.6439 36.7906 71.7786 35.0133 73.0558C34.7058 73.1791 34.3966 73.2969 34.0804 73.3832C34.6244 72.9815 35.1402 72.5302 35.6225 72.0712C36.4278 71.3045 37.1696 70.4687 37.8367 69.5691C39.1754 67.7644 40.225 65.7257 40.9344 63.568C41.6435 61.4125 41.9819 59.1443 41.9572 56.867C41.9516 56.3308 41.9477 55.7753 41.7256 55.2796C41.4809 54.7339 40.9813 54.5286 40.4348 54.4677C39.3708 54.3491 38.2672 54.4816 37.2398 54.7787C35.1751 55.3754 33.2938 56.6661 32.0076 58.4588C31.8912 58.6211 31.7861 58.7918 31.68 58.9622C31.5577 58.6986 31.4375 58.4342 31.3059 58.176C30.5609 56.7105 29.6478 55.3266 28.4734 54.1978C27.8997 53.6462 27.2182 53.0415 26.4094 52.9552C25.6492 52.8744 25.0132 53.3238 24.5407 53.9026C24.0277 54.5305 23.6399 55.292 23.276 56.0198C22.8752 56.8211 22.53 57.6531 22.2603 58.512C21.7653 60.088 21.5467 61.7841 21.6708 63.438C21.6605 63.3906 21.6478 63.3444 21.6383 63.2963C21.4666 62.4355 21.3711 61.5583 21.3503 60.6792C21.309 58.9376 21.5653 57.1802 22.121 55.5362C22.5007 54.4133 23.0222 53.3694 23.6173 52.3688C24.8404 51.1754 26.402 50.452 27.7072 49.3684C29.0269 48.2726 29.9108 46.762 30.165 45.0152C30.3057 44.0499 30.2383 43.0683 29.975 42.1323C29.9485 42.0387 29.8103 41.9844 29.7303 42.031C27.0592 43.5872 25.0467 46.2108 24.1166 49.2432C23.8719 50.0403 23.7083 50.8621 23.624 51.6942C22.9513 52.7374 22.3484 53.8306 21.9017 55.0001C21.2762 56.6367 20.9392 58.403 20.9191 60.1644C20.9078 61.1511 20.9854 62.1377 21.1599 63.1075C21.2939 63.8507 21.4726 64.6083 21.7293 65.3258C21.4303 64.8939 21.1542 64.4489 20.9289 63.9616C20.5951 63.2404 20.35 62.4774 20.1787 61.6975C19.8102 60.0164 19.7887 58.2921 19.9075 56.5798C19.9121 56.5111 19.9185 56.4425 19.9245 56.3738C20.0214 56.314 20.0828 56.1821 20.007 56.0569C20.2411 54.8609 20.6508 53.7524 21.1698 52.6592C21.7099 51.5216 22.2924 50.3984 22.5991 49.1616C23.2246 46.6386 22.7641 43.8989 21.346 41.753C20.6712 40.7326 19.7919 39.8179 18.7387 39.2281L18.7098 39.1543C18.7074 39.1485 18.7028 39.147 18.7 39.1415C18.6993 39.1389 18.6986 39.1363 18.6978 39.1338C18.6837 39.0893 18.6703 39.0446 18.6576 38.9994C18.6337 38.9142 18.5642 38.8352 18.4778 38.8209C18.4313 38.8132 18.3689 38.8363 18.3432 38.8797L18.3209 38.9201L18.3111 39.0049L18.3121 39.042C18.3125 39.0471 18.3149 39.0512 18.316 39.0559C18.2871 39.0706 18.2649 39.0971 18.2751 39.1397C18.4186 39.7404 18.5723 40.3397 18.6605 40.9525C18.7469 41.5536 18.786 42.1621 18.7895 42.7694C18.7969 43.9827 18.682 45.194 18.555 46.3985C18.3223 48.5998 18.0551 50.846 18.4313 53.0481C18.6259 54.1864 19.006 55.2759 19.6209 56.2405C19.5141 57.9748 19.5183 59.7072 19.8656 61.4316C20.0412 62.3041 20.2992 63.1622 20.6684 63.9675C20.8574 64.3802 21.0777 64.7893 21.3333 65.1711L21.2879 65.1587C21.0382 65.1403 20.7883 65.133 20.5379 65.1337C19.0095 64.2884 17.595 63.2324 16.3173 62.0081C16.3906 61.8172 16.4604 61.6244 16.5235 61.4287C16.9671 60.0528 17.1557 58.5899 17.0496 57.1413C17.0002 56.4682 16.9304 55.7106 16.6145 55.1073C16.4456 54.7853 16.1854 54.5411 15.8846 54.4339C15.8857 54.4291 15.8868 54.424 15.8878 54.4188C16.0218 54.3612 16.0366 54.1853 15.9597 54.0935C16.1385 53.2842 16.2189 52.4451 16.2355 51.6211C16.257 50.5445 16.1681 49.4664 15.9661 48.4103C15.7602 47.3322 15.4408 46.2758 15.0106 45.2719C14.7987 44.7773 14.5597 44.2962 14.2949 43.8299C14.0407 43.3815 13.7745 42.9207 13.4395 42.5315C13.1243 42.1646 12.7115 41.8103 12.2221 41.7611C11.7927 41.7178 11.3971 41.9172 11.1268 42.259C10.8553 42.602 10.7194 43.0423 10.621 43.4678C10.4948 44.0146 10.4076 44.5742 10.3296 45.1302C10.0042 47.4512 9.99882 49.823 10.2985 52.1473C10.3218 52.3276 10.3525 52.5065 10.3797 52.686C9.97679 51.638 9.63592 50.5676 9.42423 49.4572C9.1726 48.1368 9.06697 46.7866 9.12331 45.4415C9.17947 44.0987 9.39253 42.765 9.77377 41.4806C10.1712 40.1406 10.7487 38.887 11.415 37.6716C11.757 37.0474 12.1079 36.4286 12.4513 35.8055C12.6293 35.4831 12.8095 35.1603 12.9748 34.8306C13.0834 34.6132 13.1702 34.3697 13.186 34.1233C13.2174 33.6383 12.9167 33.3221 12.5098 33.3151C13.699 32.4698 14.9669 31.7252 16.1766 30.9618C17.5604 30.0882 18.9196 29.1437 20.0623 27.9404C20.5323 27.4458 21.2981 26.7188 21.1334 25.9373C20.9727 25.1736 20.1279 24.9958 19.5017 24.875C18.0946 24.6033 16.6501 24.6275 15.2507 24.911C15.5645 24.6492 15.8586 24.3599 16.1353 24.0503C16.7939 23.3133 17.3313 22.4581 17.7159 21.5346C17.9035 21.0837 18.0519 20.6166 18.164 20.1396C18.2628 19.721 18.401 19.197 18.1623 18.8019C17.8788 18.3319 17.2213 18.4226 16.7643 18.4369C16.2048 18.4542 15.647 18.5163 15.0963 18.6205C14.4768 18.7377 13.864 18.9253 13.2742 19.1533C12.9777 19.2679 12.6864 19.3961 12.4016 19.5385C12.1209 19.6784 11.7955 19.818 11.5649 20.0405C11.3573 19.7085 11.1462 19.3784 10.9247 19.0571C10.6467 18.6532 10.3326 18.2559 9.94442 17.9618C9.5745 17.682 9.13653 17.5127 8.67501 17.5582C8.16638 17.6085 7.72305 17.9287 7.34802 18.2677C6.48657 19.0461 5.73707 19.9678 5.12873 20.9717C4.82478 21.4733 4.55248 21.9966 4.31834 22.5375C4.23407 22.7321 4.15129 22.9311 4.07608 23.133C4.06854 21.672 4.27085 20.2215 4.48391 18.7751C4.63855 17.7249 4.79421 16.6674 4.86279 15.6062L4.88221 15.5401L4.94733 15.5155C5.31175 15.2129 5.67205 14.9621 6.10163 14.769C6.52662 14.578 6.97066 14.4389 7.40478 14.2725C8.28633 13.9347 9.10758 13.4423 9.83216 12.8195C11.346 11.5182 12.3867 9.70528 12.7633 7.69854C12.8754 7.10184 12.9258 6.49523 12.9195 5.88788C12.9142 5.39767 12.8941 4.86449 12.77 4.37868C12.7732 4.32067 12.7795 4.26338 12.7806 4.20537C12.7834 4.05041 12.6381 3.87893 12.4774 3.96853C9.30041 5.74504 6.44895 8.66721 5.25721 12.2735C5.09608 12.7611 4.96662 13.2616 4.8753 13.7683L4.87326 13.7808C4.86635 13.6644 4.86236 13.5477 4.85189 13.4313C4.84019 13.2998 4.82242 13.1695 4.80644 13.0391C4.80962 12.9796 4.81279 12.9198 4.8161 12.8603C4.85616 12.1479 4.87601 11.4344 4.86141 10.721C4.83497 9.43025 4.67532 8.14947 4.29507 6.91751C3.94003 5.76744 3.38334 4.68309 2.60919 3.77905C1.87841 2.92604 0.991331 2.23865 0.0473824 1.66251C-1.04148 0.998245 -2.18721 0.478653 -3.36199 0.00679779C-3.45112 -0.0291901 -3.54504 0.0846558 -3.47823 0.166176L-3.47657 0.168373L-3.49918 0.195915C-3.59557 0.221619 -3.67504 0.304237 -3.65205 0.436798C-3.27057 2.63853 -2.86179 4.90305 -1.66071 6.80404C-1.11446 7.6688 -0.413328 8.39255 0.422804 8.9518C1.29613 9.53528 2.27051 9.96857 3.07153 10.6659C3.58664 11.1142 4.04195 11.7117 4.24592 12.3807C4.28611 12.5918 4.32123 12.8041 4.35032 13.0178C4.30445 13.6409 4.24081 14.2677 4.26161 14.8901C4.24673 15.832 4.20502 16.7812 4.12788 17.7187C4.10845 17.9533 4.08451 18.1876 4.05821 18.4215L4.05585 18.3833C3.99235 17.6959 3.85065 17.0159 3.63977 16.3612C3.21516 15.0422 2.50645 13.8157 1.56716 12.8246C1.31002 12.5537 1.04133 12.2944 0.75419 12.0579C0.472517 11.8255 0.149981 11.5652 -0.19586 11.4502L-0.231258 11.4513L-0.249842 11.3827C-0.274487 11.3052 -0.353815 11.3239 -0.388121 11.3768C-0.447071 11.339 -0.530243 11.4286 -0.477356 11.4869C-0.449255 11.5182 -0.422955 11.5505 -0.395277 11.5817C-0.366226 12.1776 -0.240885 12.7806 -0.127003 13.3611C-0.00427055 13.9861 0.14723 14.6059 0.34774 15.2089C0.752813 16.4269 1.40162 17.5167 2.1671 18.5232C2.5837 19.0711 3.0258 19.5976 3.47533 20.1161C3.48471 20.1852 3.49627 20.2535 3.50495 20.3221C3.5621 20.7804 3.59944 21.2409 3.61597 21.7024C3.62436 21.9371 3.62574 22.171 3.62394 22.4056C3.62214 22.6513 3.63801 22.8701 3.67408 23.1117C3.68275 23.1701 3.73123 23.2087 3.78369 23.2237C3.79265 23.3398 3.80559 23.4558 3.81814 23.5718C2.97954 21.709 1.46498 20.1657 -0.24501 19.1805C-1.0865 18.6958 -2.43306 18.1347 -3.15224 19.1397C-3.47576 19.5918 -3.51419 20.1874 -3.50647 20.7305C-3.49671 21.4112 -3.43691 22.0913 -3.33308 22.7636C-3.11603 24.1685 -2.69209 25.5364 -2.08612 26.8113L-2.09261 26.805C-2.54433 26.3842 -3.01812 25.9891 -3.51074 25.6216C-4.48928 24.8916 -5.5561 24.278 -6.66438 23.7896C-7.1551 23.5737 -7.75818 23.3578 -8.26998 23.6288C-8.70407 23.8583 -8.89358 24.3437 -8.9214 24.8277C-8.95334 25.3855 -8.82652 25.9465 -8.69208 26.4823C-8.54626 27.0632 -8.35907 27.6323 -8.12757 28.182C-7.15207 30.4983 -5.46535 32.3079 -3.41311 33.6254C-1.26141 35.0068 1.1307 35.927 3.26449 37.34C3.49613 37.4931 3.72587 37.6554 3.9523 37.8243C2.62062 37.1307 1.16254 36.7272 -0.279737 36.3555C-1.66635 35.9979 -3.04329 35.6101 -4.40995 35.189C-7.26334 32.9281 -10.2224 30.6254 -13.7393 29.6376C-14.6768 29.3743 -15.6535 29.1816 -16.6253 29.2429L-16.66 29.2609C-16.7161 29.2142 -16.8016 29.2888 -16.7801 29.3644C-16.7584 29.4401 -16.7323 29.515 -16.7071 29.5895L-16.7056 29.6586L-16.6747 29.6898C-16.3956 30.4693 -15.9407 31.1894 -15.4534 31.8405C-14.8922 32.5903 -14.2351 33.2674 -13.5111 33.8461C-11.9447 35.0979 -10.0505 35.8675 -8.0865 36.0695C-6.92466 36.1892 -5.74438 36.1136 -4.60609 35.8429C-4.4824 35.8136 -4.42881 35.7067 -4.42786 35.6021L-4.41189 35.5929C-3.45345 35.8965 -2.48979 36.1822 -1.52105 36.447C-0.695248 36.6724 0.14032 36.8832 0.964466 37.1292C0.122023 37.0576 -0.734348 37.1219 -1.56688 37.2629C-2.61333 37.4399 -3.63788 37.7649 -4.63031 38.1633C-4.69423 38.1372 -4.76474 38.1486 -4.82024 38.2165C-8.54499 36.9904 -11.7563 40.0397 -14.8667 41.6278C-15.8016 42.1052 -16.7835 42.4801 -17.8208 42.6174C-17.9897 42.6398 -18.0735 42.906 -17.9175 43.0081C-17.7343 43.1278 -17.5432 43.2185 -17.3493 43.2967C-17.0167 43.4844 -16.6569 43.6301 -16.3059 43.7579C-15.808 43.9386 -15.2899 44.0711 -14.7693 44.1574C-13.6949 44.3359 -12.5845 44.3249 -11.5138 44.1244C-9.54584 43.7561 -7.76576 42.7246 -6.36096 41.2536C-5.98085 40.8556 -5.6306 40.4278 -5.31811 39.9699C-5.02819 39.5454 -4.69575 39.0578 -4.52538 38.5569C-3.80645 38.265 -3.0721 38.0146 -2.31487 37.8273C-0.767666 37.4454 0.783911 37.3723 2.35495 37.5963C2.84041 37.7814 3.3178 37.9888 3.78028 38.236C4.56296 38.6535 5.30294 39.194 5.91198 39.8575C6.21509 40.188 6.49098 40.5475 6.72139 40.9364C6.74078 40.9694 6.75802 41.0036 6.77688 41.037C6.83499 41.2096 6.8938 41.3818 6.95095 41.5544C7.09007 41.9744 7.21334 42.4044 7.40559 42.8017C7.43161 42.8557 7.47995 42.8825 7.52956 42.8877C7.61823 43.2747 7.69552 43.6643 7.75694 44.0568C7.82082 44.4652 7.88461 44.8705 7.92096 45.2829C7.92483 45.3259 7.95512 45.3417 7.98625 45.3409C8.15207 46.2178 8.36195 47.0873 8.58767 47.9444C8.14188 46.8376 7.65018 45.7522 7.07216 44.7104C6.49937 43.6786 5.82673 42.6897 4.93838 41.9252C4.51543 41.5613 4.02623 41.2242 3.47054 41.146C2.94305 41.0719 2.45248 41.3069 2.18596 41.7901C1.92524 42.2627 1.89921 42.8374 1.8685 43.368C1.84784 43.7234 1.83931 44.0796 1.83684 44.4358C1.74292 44.2882 1.63274 44.1486 1.50782 44.0205C0.99052 43.4888 0.310015 43.2126 -0.409592 43.1605C-1.30619 43.0959 -2.19204 43.3448 -3.04841 43.5886C-3.94568 43.8439 -4.84227 44.102 -5.73873 44.3609C-6.61093 44.6124 -7.49086 44.8445 -8.3559 45.1213C-9.0185 45.3336 -9.70408 45.6406 -10.1265 46.2417C-10.5913 46.903 -10.654 47.7608 -10.6434 48.5532C-10.6329 49.3298 -10.5226 50.0995 -10.32 50.8467C-9.87391 52.4921 -8.99371 53.9841 -7.78268 55.1371C-8.01394 55.2292 -8.24449 55.3232 -8.47394 55.4191C-9.25606 55.7466 -10.0491 56.0694 -10.8089 56.4502C-11.4429 56.7682 -12.071 57.2092 -12.3275 57.9245C-12.8725 59.4447 -11.7189 61.1107 -10.7391 62.1271C-10.0195 62.8736 -9.17825 63.4901 -8.28017 63.9936C-8.27946 63.9939 -8.27946 63.9947 -8.27865 63.995C-8.27766 63.9954 -8.27685 63.9954 -8.2759 63.9958C-7.80334 64.2605 -7.31609 64.4956 -6.82068 64.6978C-4.63292 65.592 -2.23322 65.8869 0.0928288 65.5729C-2.53195 66.9462 -4.81886 69.0154 -6.4429 71.5752C-6.94503 72.3664 -7.52569 73.4086 -7.20467 74.3893C-6.84053 75.5017 -5.5097 75.4461 -4.59325 75.4113C-2.31227 75.3242 -0.0653019 74.5479 1.82552 73.2194C3.77819 71.8476 5.19428 69.6458 7.37859 68.6331C8.63866 68.5701 9.88988 68.2688 11.0552 67.7375C12.0867 67.2668 13.0133 66.6098 13.8186 65.8204C13.887 65.7709 13.955 65.721 14.016 65.664C14.0403 65.6416 14.0502 65.6148 14.0541 65.5876C14.6009 65.0155 15.0861 64.3802 15.4968 63.6921C16.1995 64.0006 16.9265 64.2531 17.6493 64.5139C17.7279 64.6006 17.8397 64.6589 17.9377 64.718C18.1196 64.827 18.3061 64.9285 18.4944 65.025C18.6238 65.0911 18.7567 65.1481 18.8896 65.205C18.6287 65.2516 18.3682 65.3126 18.1105 65.383C17.0351 65.5942 15.9791 65.9253 14.9743 66.3311C12.9251 67.1588 11.0112 68.3004 9.18074 69.5585C8.84153 69.7917 8.50517 70.0299 8.17012 70.27C5.86237 71.0563 3.76691 72.3878 1.73506 73.7486C-0.450241 75.2122 -2.62972 76.7196 -5.04984 77.7367C-6.03937 78.1528 -7.06004 78.4546 -8.1036 78.6573C-8.45811 78.6789 -8.8133 78.6904 -9.16943 78.6819C-9.2653 78.6797 -9.30648 78.7877 -9.27203 78.8526C-9.32012 78.8724 -9.33169 78.9188 -9.31378 78.9625C-9.41253 79.0025 -9.35524 79.1546 -9.25677 79.1475C-8.53427 79.0972 -7.81907 79.0543 -7.09435 79.0788C-6.37446 79.1035 -5.65775 79.1795 -4.94089 79.2488C-3.54201 79.3848 -2.11119 79.528 -0.718094 79.2606C2.03404 78.7326 3.87625 76.4997 5.49633 74.3016C6.12807 73.4446 6.75679 72.5768 7.46028 71.7831C6.76793 73.2008 6.58889 74.9043 6.44331 76.5209C6.11647 76.6476 5.80659 76.9208 5.52894 77.1272C5.21466 77.3607 4.91017 77.6067 4.61337 77.8638C4.02761 78.3713 3.48238 78.9305 2.98574 79.5324C2.47546 80.1503 2.01697 80.815 1.61839 81.5163C1.19833 82.2556 0.892715 83.0578 0.468531 83.7934C0.229733 84.2076 -0.0539837 84.5972 -0.419392 84.899C-0.783392 85.1997 -1.1916 85.3407 -1.63356 85.4648C-1.71208 85.4869 -1.72033 85.5989 -1.63878 85.6209C-1.67241 85.7072 -1.64114 85.8177 -1.52228 85.8339C-1.44475 85.8442 -1.36719 85.8478 -1.28965 85.8551L-1.28387 85.8584C-0.747147 85.9499 -0.201361 85.9584 0.341816 85.9565C0.871386 85.9551 1.40162 85.929 1.92717 85.8584C2.81964 85.7395 3.70521 85.4843 4.49325 85.0239C5.2674 84.5715 5.91085 83.9372 6.34868 83.1298C6.79039 82.3154 7.01706 81.3856 7.09364 80.4577C7.14585 79.8272 7.13263 79.1887 7.09159 78.5579C7.0497 77.917 7.02425 77.2374 6.89189 76.6094C6.8792 76.5492 6.84958 76.5077 6.81323 76.4802C6.8719 75.7197 6.93621 74.96 7.06762 74.2083C7.2694 73.0558 7.62885 71.87 8.29902 70.9167C8.30149 70.9145 8.3041 70.9124 8.3066 70.9098C9.93532 69.8195 11.5769 68.7447 13.3119 67.8451C14.5769 67.1898 15.9079 66.5849 17.2759 66.156C17.3852 66.1289 17.4934 66.0973 17.6031 66.0727C18.5367 65.8622 19.4767 65.7554 20.4251 65.7271C20.5245 65.7521 20.6254 65.769 20.7252 65.7914C20.8235 65.8365 20.923 65.8794 21.021 65.925C21.1973 66.0121 21.376 66.0925 21.5544 66.1743C19.2641 66.3062 16.9653 67.0516 14.9271 68.0993C13.7671 68.6956 12.6625 69.4149 11.6468 70.25C10.7794 70.963 9.65147 71.9886 10.0155 73.2841C10.3466 74.4624 11.6929 75.0371 12.6628 75.5057C13.907 76.1068 15.207 76.5753 16.538 76.9168C17.5594 77.1793 18.6002 77.3589 19.648 77.4584C19.0839 78.3331 18.6816 79.3385 18.4038 80.3405C18.0696 81.5464 17.9313 82.8045 17.9867 84.0581C18.042 85.3154 18.3016 86.5635 18.7398 87.736C18.9595 88.3231 19.2256 88.8897 19.5334 89.4317C19.8155 89.9282 20.1191 90.4625 20.5563 90.8292C21.5763 91.6844 22.8202 90.8403 23.7344 90.2351C24.7008 89.5958 25.6037 88.8534 26.433 88.0316C27.1322 87.3383 27.7749 86.5895 28.3665 85.7997C28.3429 86.4927 28.6398 87.2465 28.8869 87.8391C29.3566 88.9654 29.9623 90.0353 30.6614 91.0234C31.3585 92.008 32.1623 92.9465 33.0688 93.7275C33.5159 94.1128 34.0405 94.4532 34.6307 94.513C35.1899 94.5695 35.7301 94.368 36.1926 94.0514C38.0666 92.7695 38.5306 90.1393 38.5066 87.9764C38.4897 86.4181 38.2785 84.8556 37.9167 83.3351C39.2213 83.6277 40.5967 83.5994 41.9132 83.4137C43.2734 83.2216 44.6068 82.8382 45.8803 82.3076C46.9878 81.846 48.0462 81.2677 49.0613 80.6163C49.4572 80.4012 49.8429 80.1651 50.2096 79.8959C50.4885 79.6917 50.7529 79.4684 51.0082 79.2346C51.4687 78.8729 51.915 78.4845 52.2817 78.018C52.6286 77.5771 52.9072 77.0475 52.9583 76.4714C52.9752 76.2815 52.9639 76.095 52.9336 75.9129C52.9548 75.8435 52.9449 75.7704 52.8924 75.7175C52.8102 75.3995 52.665 75.0987 52.471 74.8296C52.1209 74.3427 51.6481 73.9627 51.1658 73.6282C50.6376 73.2613 50.0799 72.9397 49.5041 72.662C47.1408 71.5234 44.4954 71.1481 41.9118 71.3412C40.5152 71.4455 39.1328 71.7136 37.7828 72.0976C37.3491 72.2211 36.9193 72.3591 36.492 72.5041C37.6442 71.7937 38.8147 71.1165 40.0269 70.5169C42.1356 69.474 44.3526 68.6522 46.6511 68.2061C48.5881 67.83 50.5516 67.761 52.501 67.985C53.9325 68.7344 55.2046 69.8181 56.177 71.1433C56.1607 71.1671 56.1512 71.1958 56.1625 71.2314C56.7428 73.1196 56.3518 75.0955 56.196 77.0178C56.1195 77.9608 56.098 78.9188 56.2753 79.8514C56.4502 80.771 56.7915 81.6459 57.2153 82.4703C57.7071 83.4273 58.3016 84.3218 58.8981 85.2099C59.0427 85.4252 59.3096 85.2085 59.2486 84.9938C58.6651 82.9334 59.5962 80.8303 59.9897 78.8317C60.1868 77.8311 60.2682 76.7772 60.0183 75.778C59.805 74.925 59.3875 74.1511 58.8643 73.463C58.2589 72.6665 57.5298 71.9808 56.788 71.3257L56.7185 71.2865C56.3109 70.6895 55.8491 70.1291 55.3177 69.6232C54.6648 69.0011 53.9374 68.4811 53.1512 68.0706C53.3493 68.1 53.5478 68.1282 53.7456 68.1638C55.8991 68.5534 57.9832 69.2724 59.9954 70.1545C60.6825 70.7232 61.3115 71.3709 61.8531 72.0877C62.5818 73.0523 63.1118 74.132 63.6396 75.2237C64.1342 76.2481 64.6483 77.2887 65.3764 78.1587C66.1633 79.0995 67.1717 79.7325 68.3302 80.0446C69.6228 80.393 70.9753 80.3421 72.284 80.1206C72.9828 80.0024 73.6739 79.8379 74.3624 79.6664C74.6142 79.6035 75.0288 79.5812 75.1138 79.2672C75.1522 79.1244 75.0993 78.9988 75.0151 78.8868C74.7083 77.9193 74.2084 76.991 73.6541 76.161C73.0544 75.2637 72.3351 74.4493 71.5295 73.7478C69.8227 72.2619 67.7739 71.3695 65.5791 71.0427C64.5457 70.8884 63.4883 70.833 62.4482 70.6888C62.1563 70.5422 61.8665 70.391 61.5721 70.25C60.5891 69.7788 59.5874 69.3436 58.5699 68.9559C59.3731 68.8422 60.1297 68.5795 60.8535 68.2267C61.2181 68.0901 61.5791 67.9369 61.9359 67.7698Z" fill="#D3DCEE"/>
</g>
<defs>
<clipPath id="clip0_373_3011">
<rect width="80" height="81" fill="white"/>
</clipPath>
</defs>
</svg>
